<svg width="919" height="222" viewBox="0 0 919 222" fill="none" xmlns="http://www.w3.org/2000/svg">
<mask id="mask0" style="mask-type:alpha" maskUnits="userSpaceOnUse" x="0" y="-58" width="919" height="338">
<rect y="-58" width="919" height="338" rx="12" fill="#FEFEFF"/>
</mask>
<g mask="url(#mask0)">
<path d="M10.0035 74.722C29.9718 74.722 46.1593 58.5345 46.1593 38.5662C46.1593 18.5979 29.9718 2.4104 10.0035 2.4104C-9.96483 2.4104 -26.1523 18.5979 -26.1523 38.5662C-26.1523 58.5345 -9.96483 74.722 10.0035 74.722Z" fill="#3A7DCE"/>
<path d="M-7.35115 36.9994L-7.71271 35.3122H-8.07427L-8.67687 35.9148L-8.79739 34.348L-9.5205 33.7454L-10.0026 33.9864V34.2275L-10.8462 33.8659L-11.4488 33.1428L-10.0026 31.9376L-12.413 30.0093L-13.6182 25.5501L-4.69973 31.9376L0.844167 30.4914L0.603129 29.6477L1.6878 29.4067L2.16988 27.5989L2.04936 26.9963L2.41092 26.5142L2.65196 25.309L2.41092 24.827L3.25455 24.1039L3.01352 22.2961L4.94183 21.4524L6.50858 19.8857L6.38806 19.042L7.47273 19.6446L8.43689 19.042L8.79845 18.0779L9.28053 18.801L14.4629 19.042L15.5475 20.0062L19.7657 20.8498L20.6094 21.6935L21.2119 21.4524L21.8145 23.5013H22.1761L22.6582 22.8987L26.5148 24.2244L26.7558 24.827L27.72 24.5859L28.8047 25.5501L29.8893 31.4555L28.9252 34.7096L33.0229 35.9148L33.2639 38.6867L32.4203 40.7355L33.6254 41.6997L33.0229 45.1947L30.974 46.7615L31.4561 49.1719L30.2509 50.0155L29.5278 49.7745V52.0644H28.5636L28.9252 52.908L26.8764 53.7516L27.479 54.9568L26.1532 56.4031L26.5148 56.7646L25.6712 56.5236L21.8145 58.8134L22.0556 58.2108L20.8504 58.4519L20.6094 57.8493L19.6452 58.5724L19.2836 58.4519L18.681 59.175L14.3423 58.5724L13.7397 58.2108L13.0166 58.5724L11.4499 57.3672L12.173 56.6441L13.2577 54.4747V53.149L12.414 51.2207L11.4499 52.1849L5.78546 50.7386L4.58027 50.8592L3.61612 51.4618L0.844167 51.2207V51.7028L-4.94076 49.654V48.4488H-5.90492L-6.14596 44.9537L-6.86908 45.1947L-7.95375 42.6638L-7.71271 43.2664L-9.76154 41.0971H-8.55635L-8.91791 38.6867L-7.95375 36.9994H-7.35115Z" fill="white"/>
<path d="M161.858 38.566C161.858 22.7779 151.855 9.40028 137.754 4.45898V72.673C151.855 67.7317 161.858 54.354 161.858 38.566Z" fill="#ED4C5C"/>
<path d="M89.5466 38.566C89.5466 54.354 99.6703 67.7317 113.651 72.673V4.45898C99.6703 9.40028 89.5466 22.7779 89.5466 38.566Z" fill="#3E4347"/>
<path d="M137.755 4.45923C134.018 3.13352 129.921 2.4104 125.703 2.4104C121.484 2.4104 117.387 3.13352 113.651 4.45923V72.6732C117.387 73.9989 121.484 74.722 125.703 74.722C129.921 74.722 134.018 73.9989 137.755 72.6732V4.45923Z" fill="#FFE62E"/>
<path d="M241.401 2.4104C225.613 2.4104 212.236 12.534 207.294 26.5143H275.508C270.567 12.534 257.189 2.4104 241.401 2.4104Z" fill="#ED4C5C"/>
<path d="M241.401 74.722C257.189 74.722 270.567 64.7189 275.508 50.6182H207.294C212.236 64.7189 225.613 74.722 241.401 74.722Z" fill="#ED4C5C"/>
<path d="M207.294 26.5139C205.968 30.25 205.245 34.3477 205.245 38.5659C205.245 42.784 205.968 46.8817 207.294 50.6178H275.508C276.834 46.8817 277.557 42.784 277.557 38.5659C277.557 34.3477 276.834 30.25 275.508 26.5139H207.294Z" fill="white"/>
<path d="M339.021 7.23112C321.787 17.2342 315.761 39.4098 325.764 56.6441L388.434 20.4883C378.431 3.25398 356.256 -2.77199 339.021 7.23112Z" fill="#FFCE31"/>
<path d="M375.177 69.9012C392.412 59.8981 398.437 37.8431 388.434 20.4883L325.764 56.6441C335.767 73.8784 357.943 79.9044 375.177 69.9012Z" fill="#ED4C5C"/>
<path d="M388.073 22.1756C388.073 22.1756 386.265 22.0551 385.301 22.0551C384.337 22.0551 383.493 22.6577 382.408 22.7782C383.132 22.4167 383.493 21.8141 384.096 21.4525C384.698 21.2115 385.662 21.0909 385.783 20.2473C385.18 20.7294 384.337 20.6089 383.614 20.4883C382.89 20.4883 382.408 21.0909 381.926 21.4525C382.167 20.3678 382.77 19.6447 382.89 18.56C383.011 17.5959 384.578 16.8728 384.096 15.7881C383.975 16.7522 382.77 16.8728 382.408 17.7164C382.047 18.8011 381.083 19.6447 380.962 20.8499C380.842 22.2961 379.757 21.573 378.793 21.9346C378.552 22.0551 377.467 20.7294 375.9 20.7294C373.49 20.8499 372.526 20.8499 369.392 17.7164C368.669 16.9933 366.138 16.7522 365.174 17.3548C366.138 17.3548 366.982 17.5959 367.705 18.078C367.223 18.4395 366.5 17.5959 365.897 17.9574C366.861 17.9574 367.223 18.4395 367.102 19.2831C366.259 18.6806 364.813 17.8369 363.728 18.319C363.005 18.6806 361.679 18.1985 361.318 19.1626C362.282 18.6806 363.246 19.0421 364.21 19.4037C363.728 19.5242 362.523 19.5242 362.161 20.0063C362.643 19.8857 363.125 19.8857 363.487 20.0063C363.366 20.3678 363.246 20.7294 363.366 21.0909C362.041 20.6089 360.233 19.8857 359.028 20.8499C357.702 21.9346 359.751 23.1398 360.112 22.4167C359.269 22.7782 358.907 21.332 360.112 21.332C361.8 21.2115 363.366 21.9346 364.813 22.6577C364.089 22.8987 361.8 22.6577 361.438 21.6935C361.318 22.0551 361.318 22.5372 361.679 22.7782C360.594 22.7782 359.63 23.8629 358.666 23.7424C357.822 23.7424 356.135 23.7424 356.015 24.827C357.34 23.6218 359.148 24.586 360.715 24.345C360.353 25.0681 360.112 25.9117 359.871 26.7554C359.51 27.84 358.425 28.3221 357.822 29.4068C358.305 28.9247 358.907 28.5631 359.63 28.4426C359.269 29.2863 358.305 30.612 358.787 31.4556C359.028 30.1299 359.871 30.4915 360.835 30.0094C360.594 30.612 361.076 31.6966 361.92 31.4556C361.559 32.0582 361.92 32.9018 362.643 33.1429C362.161 33.7455 360.956 33.3839 360.715 33.9865C361.559 33.625 362.282 34.9507 363.366 34.5891C363.246 35.0712 363.366 35.4328 363.607 35.7943C363.005 35.6738 361.92 36.1559 361.559 35.3122C361.197 36.2764 362.884 36.0353 362.643 36.7585C362.282 36.7585 361.8 35.7943 361.559 36.5174C361.438 36.5174 361.197 35.7943 360.835 35.6738C360.353 35.5533 359.751 35.9148 359.51 35.7943C359.992 35.0712 358.666 34.5891 358.184 35.0712C358.305 33.9865 356.256 33.2634 356.256 32.4198C355.894 33.0224 356.617 33.5044 356.497 34.107C356.256 33.866 356.015 33.7455 355.774 33.866C355.051 33.9865 355.533 33.7455 354.809 33.625C354.086 33.5044 354.448 33.9865 353.845 33.625C353.484 33.3839 353.002 33.5044 352.881 33.7455C352.52 32.5403 350.953 33.1429 350.591 32.1787C350.471 32.7813 351.314 33.3839 351.435 33.9865C350.712 33.3839 349.386 34.107 349.748 35.0712C349.507 35.1917 347.819 34.5891 348.181 35.9148C347.699 35.4327 344.927 35.7943 344.927 36.6379C345.409 36.2764 346.373 36.5174 346.735 36.7585C346.373 36.9995 346.253 37.8431 346.494 38.2047C345.168 38.0842 345.771 39.892 345.168 40.2535C344.324 40.7356 343.481 41.9408 342.396 41.5792C342.999 42.5434 344.204 41.5792 344.927 41.6998C344.083 42.3024 344.806 43.2665 344.204 43.8691C343.722 44.4717 343.119 45.9179 342.034 45.5564C342.155 46.0385 342.758 46.159 343.24 46.159C342.878 46.4 342.516 46.8821 342.034 46.6411C342.034 47.0026 342.275 47.2437 342.516 47.3642C341.914 47.3642 341.432 47.6052 340.829 47.4847C340.829 47.7257 340.95 48.0873 341.07 48.3283C340.347 48.0873 338.901 47.7257 338.419 48.5694C338.78 48.5694 339.383 48.5694 339.504 49.0514C339.021 48.6899 338.419 48.9309 337.816 48.9309C336.973 49.0514 336.491 48.5694 335.647 48.3283C335.044 48.0873 332.272 47.6052 332.152 48.5694C332.754 48.0873 334.08 49.0514 334.803 48.9309C335.888 48.8104 336.732 49.654 337.696 49.8951C336.249 49.7746 335.406 50.4977 334.08 50.6182C333.478 50.7387 332.152 50.4977 332.031 51.3413C332.634 50.9798 333.357 51.4618 334.08 51.2208C334.683 51.1003 335.285 50.6182 335.888 50.8592C335.526 51.3413 334.924 51.5824 334.321 51.7029C333.357 51.8234 332.995 52.1849 332.152 52.667C331.549 53.0286 330.706 52.9081 330.103 53.3901C329.621 53.7517 329.139 54.3543 328.416 54.3543C329.259 54.8364 330.103 53.9927 330.826 53.7517C331.79 53.3901 332.754 53.5107 333.598 52.9081C333.116 54.1133 331.429 53.8722 330.465 54.5953C329.259 55.439 328.416 56.7647 326.969 57.0057C327.572 57.7288 328.898 56.7647 329.38 56.5237C330.465 55.9211 331.79 56.1621 332.754 55.3185C333.719 54.4748 334.803 54.3543 335.647 53.5107C335.888 53.2696 338.057 51.8234 338.298 51.8234C337.455 52.1849 337.334 53.5107 336.249 53.7517C337.093 54.1133 338.901 52.667 339.865 52.3055C339.383 53.0286 337.816 53.3901 337.696 54.2338C338.539 53.5107 339.745 53.7517 340.468 53.1491C341.191 52.5465 342.637 51.5823 343.119 50.7387C343.601 50.0156 344.083 49.654 344.806 49.172C345.168 48.9309 345.529 48.5694 346.012 48.4488C346.494 48.3283 346.976 48.6899 347.458 48.4488C347.578 50.6182 346.735 48.8104 346.012 49.7746C345.891 49.8951 346.735 50.1361 346.855 50.3772C346.855 50.3772 345.529 51.5824 345.409 51.5824C345.771 52.0644 346.614 51.7029 346.976 51.3413C346.855 51.7029 347.337 52.0644 347.217 52.426C347.458 52.426 348.06 51.1003 348.301 51.3413C347.699 51.5823 348.783 51.9439 348.783 51.9439C348.422 52.1849 348.783 52.5465 349.025 52.426C348.663 52.5465 349.025 53.1491 348.783 53.3901C348.542 53.9927 348.06 53.8722 347.458 54.3543C346.976 54.8364 346.855 55.439 346.976 56.0416C347.096 56.5236 347.458 58.0904 347.699 57.1262C347.217 59.4161 350.109 60.8623 351.796 59.2956C352.64 58.452 353.604 54.9569 352.158 54.2338C352.399 54.3543 352.761 54.2338 352.881 54.1133C353.002 54.3543 353.122 54.4748 353.363 54.4748C354.207 54.7159 354.448 55.8005 354.327 56.6442C354.93 55.9211 354.809 54.1133 354.207 53.3901C353.966 53.1491 353.122 52.7875 352.761 52.667C352.399 52.667 352.158 52.667 352.038 53.0286C351.796 52.7875 351.435 52.667 351.073 52.7875C351.194 52.3055 350.591 51.1003 350.109 50.8592C349.145 50.2566 349.748 48.6899 349.989 47.8462C350.35 48.0873 351.435 48.4488 351.917 48.6899C352.399 48.9309 355.051 49.5335 353.966 49.0514C356.376 50.0156 357.822 46.159 355.533 45.3153C356.497 45.4359 355.653 44.4717 355.171 44.2307C354.448 43.9896 353.002 44.3512 352.399 44.8333C352.52 44.7127 352.761 43.8691 352.881 43.7486C353.243 43.387 353.604 43.0255 354.207 43.2665C351.917 40.2535 351.194 45.7974 350.109 45.3153C349.386 44.9538 349.266 42.905 349.627 42.4229C349.868 42.1818 349.627 41.8203 349.748 41.4587C349.989 41.0972 350.471 40.7356 350.712 40.374C351.555 38.9278 355.051 39.6509 356.617 40.374C358.666 41.2177 361.438 41.5792 363.607 41.8203C363.366 42.3024 363.728 42.5434 363.607 42.905C363.366 42.7844 361.438 42.7844 361.318 42.905C361.8 42.905 362.282 43.5075 362.884 43.5075C361.92 43.6281 361.8 44.9538 361.076 44.9538C361.559 45.3153 364.331 43.6281 363.125 45.6769C363.607 45.6769 363.848 45.0743 363.969 44.5922C364.451 44.8333 367.343 47.2437 367.946 46.2795C367.946 46.8821 368.79 46.8821 369.151 46.8821C369.754 46.8821 370.839 47.3642 371.321 47.2437C369.513 48.5694 374.454 52.7875 374.454 51.1003C374.454 50.0156 376.021 52.0644 377.588 50.6182C379.154 49.0514 377.829 46.0385 375.659 46.159C376.262 46.0385 377.588 45.9179 377.829 47.0026C378.913 45.1948 376.021 44.2307 374.816 44.7127C375.539 44.3512 375.057 43.9896 375.659 43.6281C376.141 43.387 376.503 42.905 377.106 43.0255C376.382 42.1818 373.49 42.4229 373.731 43.8691C373.369 43.7486 373.128 43.8691 372.887 44.1101C372.887 44.5922 372.646 44.7127 372.164 44.7127C371.923 45.1948 371.682 45.3153 371.441 44.8333C370.959 44.5922 370.718 44.7127 370.236 44.3512C369.874 44.1101 369.031 44.1101 368.669 44.1101C368.067 44.2307 367.826 43.387 367.102 43.6281C366.982 42.4229 367.946 41.6998 368.428 40.7356C369.031 39.6509 369.633 38.5663 369.874 37.2405C369.995 36.1559 369.633 35.1917 371.08 35.0712C372.164 34.9507 372.405 36.2764 371.321 36.6379C371.803 36.9995 372.405 36.5174 372.646 36.0353C372.285 36.7585 372.285 38.0842 373.249 38.3252C373.008 37.7226 373.731 37.2405 373.49 36.6379C373.972 36.879 374.454 37.3611 374.454 37.9637C375.057 37.2405 374.213 36.5174 374.213 35.7943C375.298 35.9148 376.021 35.5533 376.865 34.8302C377.829 34.2276 377.949 34.2276 378.672 34.8302C379.998 35.7943 382.89 35.5533 383.734 33.9865C384.096 33.1429 384.939 33.1429 384.216 32.1787C383.734 31.4556 383.132 30.853 382.77 30.1299C381.806 27.84 378.793 30.3709 378.431 31.094C377.949 31.8172 378.311 31.9377 377.347 31.8172C376.141 31.6966 375.057 32.5403 373.731 32.2992C372.526 32.0582 371.682 31.4556 370.718 30.853C369.392 30.1299 368.669 30.1299 367.705 28.8042C368.428 28.9247 369.272 29.0452 369.874 29.6478C370.356 30.1299 370.839 30.853 371.682 30.612C370.839 30.3709 369.995 29.0452 369.151 28.5631C369.995 27.4785 371.803 27.84 373.128 27.84C374.213 27.84 374.695 29.0452 375.539 29.5273C375.057 29.7683 374.936 30.4915 374.334 30.4915C374.816 30.7325 375.418 30.612 375.9 30.2504C375.78 30.7325 375.9 31.2146 376.382 31.4556C376.021 30.9735 376.623 30.612 376.865 30.3709C376.985 30.7325 377.467 30.9735 377.347 31.3351C378.552 31.0941 377.708 28.2016 376.865 27.9605C378.431 26.6348 378.793 29.0452 378.311 30.1299C378.913 29.6478 378.913 28.9247 378.913 28.2016C380.119 28.5631 385.903 26.8759 385.662 29.1657C386.506 28.2016 384.939 27.4785 384.216 27.358C383.614 27.2374 383.252 25.5502 382.408 26.2733C383.373 26.1528 382.89 27.4785 382.288 27.7195C382.529 26.8759 381.685 26.2733 380.842 26.5143C382.89 27.1169 379.757 28.6837 379.998 27.599C380.119 26.8759 380.721 26.3938 380.601 25.6707C380.48 25.3091 380.239 24.827 380.239 24.586C380.721 24.7065 380.721 24.345 380.36 24.1039C380.721 24.2244 381.083 23.8629 381.444 23.8629C382.288 23.7424 383.011 23.3808 383.855 23.0193C385.06 22.6577 388.073 22.1756 388.073 22.1756ZM374.454 26.1528C374.816 25.3091 376.744 24.4655 376.141 25.9117C376.382 25.7912 376.744 24.9476 377.106 25.1886C377.588 25.4296 377.829 25.9117 377.226 26.1528C377.708 26.1528 378.19 25.7912 378.672 25.9117C378.431 26.1528 378.431 26.6348 378.07 26.8759C377.347 27.3579 375.539 26.2733 374.454 26.1528ZM376.623 28.0811C376.141 27.84 375.177 27.3579 374.816 26.8759C375.539 27.1169 376.382 27.2374 377.106 27.599C377.106 27.599 376.744 27.84 376.623 28.0811Z" fill="white"/>
<path d="M508.592 33.7452C508.472 32.54 508.231 31.3348 507.869 30.1296H437.606L436.883 33.7452H508.592Z" fill="white"/>
<path d="M437.004 43.3865C437.124 44.5917 437.365 45.7969 437.727 47.0021H507.99L508.713 43.3865H437.004Z" fill="white"/>
<path d="M458.336 5.4231L454.72 7.23089V69.901C455.925 70.6241 457.13 71.2267 458.336 71.7088V5.4231Z" fill="white"/>
<path d="M467.978 2.77171V74.4808L471.593 74.8423V2.41016C470.388 2.41016 469.183 2.53068 467.978 2.77171Z" fill="white"/>
<path d="M436.642 38.5661C436.642 40.2534 436.763 41.8202 437.004 43.3869H508.713C508.954 41.8202 509.074 40.2534 509.074 38.5661C509.074 36.8789 508.954 35.3121 508.713 33.7454H437.004C436.763 35.3121 436.642 36.8789 436.642 38.5661Z" fill="#2A5F9E"/>
<path d="M458.336 71.7091C461.349 73.0348 464.603 73.999 467.977 74.3605V2.77197C464.603 3.25405 461.349 4.09769 458.336 5.4234V71.7091Z" fill="#2A5F9E"/>
<path d="M454.72 30.1296V7.23096C446.284 12.1723 440.017 20.3676 437.606 30.1296H454.72Z" fill="#ED4C5C"/>
<path d="M454.72 47.0027V69.9014C446.284 64.9601 440.017 56.7648 437.606 47.0027H454.72Z" fill="#ED4C5C"/>
<path d="M472.798 2.4104H471.593V30.1299H507.99C504.133 14.2213 489.912 2.4104 472.798 2.4104Z" fill="#ED4C5C"/>
<path d="M471.593 47.0027V74.7222H472.798C489.912 74.7222 504.133 62.9112 507.99 47.0027H471.593Z" fill="#ED4C5C"/>
<path d="M588.497 2.4104C575.481 2.4104 564.031 9.28001 557.644 19.6447V42.6639H552.582C554.631 60.7418 569.937 74.722 588.497 74.722C601.513 74.722 612.962 67.8524 619.35 57.4878V34.4686H624.411C622.363 16.3907 607.057 2.4104 588.497 2.4104Z" fill="#FFE62E"/>
<path d="M553.185 30.7326L623.809 46.4001C624.412 43.8692 624.653 41.2178 624.653 38.5663C624.653 37.2406 624.532 35.7944 624.412 34.4687L557.644 19.6448C555.595 23.0193 554.029 26.7554 553.185 30.7326Z" fill="white"/>
<path d="M623.809 46.3999L553.185 30.7324C552.703 33.2633 552.341 35.9148 552.341 38.5662C552.341 39.8919 552.462 41.3381 552.582 42.6638L619.35 57.4877C621.399 54.1132 622.965 50.3771 623.809 46.3999Z" fill="#3E4347"/>
<path d="M576.445 40.1327C576.445 46.8818 581.748 52.4257 588.376 52.4257C595.005 52.4257 600.308 46.8818 600.308 40.1327C600.308 37.6018 599.585 35.1914 598.259 33.1426C598.982 34.5888 599.344 36.2761 599.344 38.0839C599.344 43.1457 596.09 47.4844 591.631 48.8101L589.22 42.9046V33.3836C589.702 33.6247 590.425 33.8657 591.51 34.2272C595.367 35.9145 598.38 30.8527 598.38 30.8527C598.38 30.8527 595.608 31.2143 593.438 29.0449C591.992 27.5987 590.305 28.3218 589.341 28.9244V27.7192H591.269C591.269 27.7192 591.751 22.0548 588.497 20.488V24.5857H586.689V27.7192H587.292V28.9244C586.328 28.3218 584.761 27.9602 583.435 29.1654C581.145 31.3348 578.494 30.9732 578.494 30.9732C578.494 30.9732 581.507 36.035 585.364 34.3478C586.207 33.9862 586.81 33.7452 587.412 33.5041V42.7841L585.002 48.6896C580.663 47.1228 577.53 43.0252 577.53 37.9634C577.53 36.1556 577.891 34.5888 578.614 33.0221C577.289 35.1914 576.445 37.4813 576.445 40.1327Z" fill="#ED4C5C"/>
<path d="M575.481 48.9307V39.2892C571.624 37.2404 571.624 34.3479 571.624 34.3479H568.611C568.611 39.7713 571.624 40.4944 571.624 40.4944V48.9307H575.481Z" fill="#ED4C5C"/>
<path d="M605.369 34.3479C605.369 34.3479 605.369 37.2404 601.513 39.4097V49.0513H605.369V40.6149C605.369 40.6149 608.382 39.8918 608.382 34.4684C608.382 34.3479 605.369 34.3479 605.369 34.3479Z" fill="#ED4C5C"/>
<path d="M588.376 54.4746C584.038 54.4746 580.302 52.3052 577.891 48.9307L574.276 54.4746C574.276 54.4746 577.53 54.2335 580.543 55.9208C583.556 57.6081 584.399 55.9208 588.376 55.9208C592.354 55.9208 593.197 57.6081 596.21 55.9208C599.223 54.2335 602.477 54.4746 602.477 54.4746L598.862 48.9307C596.451 52.3052 592.715 54.4746 588.376 54.4746Z" fill="#ED4C5C"/>
<path d="M668.04 38.566C668.04 54.354 678.163 67.7317 692.144 72.673V4.45898C678.163 9.40028 668.04 22.7779 668.04 38.566Z" fill="#F2B200"/>
<path d="M740.352 38.566C740.352 22.7779 730.349 9.40028 716.248 4.45898V72.673C730.349 67.7317 740.352 54.354 740.352 38.566Z" fill="#83BF4F"/>
<path d="M692.144 72.6732C695.88 73.9989 699.977 74.722 704.196 74.722C708.414 74.722 712.511 73.9989 716.248 72.6732V4.45923C712.511 3.13352 708.414 2.4104 704.196 2.4104C699.977 2.4104 695.88 3.13352 692.144 4.45923V72.6732Z" fill="#F9F9F9"/>
<path d="M855.086 30.1299C851.229 14.2213 837.008 2.4104 819.894 2.4104H818.689V30.1299H855.086Z" fill="#ED4C5C"/>
<path d="M801.816 7.23096C793.38 12.1723 787.113 20.3676 784.703 30.1296H801.816V7.23096Z" fill="#ED4C5C"/>
<path d="M784.703 47.0027C787.113 56.7648 793.38 64.9601 801.816 69.9014V47.0027H784.703Z" fill="#ED4C5C"/>
<path d="M818.689 74.7222H819.894C837.008 74.7222 851.229 62.9112 855.086 47.0027H818.689V74.7222Z" fill="#ED4C5C"/>
<path d="M855.086 30.1299H818.689V2.4104C812.543 2.65144 806.758 4.33871 801.816 7.23118V30.1299H784.703C784.1 32.7813 783.739 35.6738 783.739 38.5662C783.739 41.4587 784.1 44.3512 784.703 47.0026H801.816V69.9013C806.758 72.7937 812.543 74.481 818.689 74.722V47.0026H855.086C855.689 44.3512 856.05 41.4587 856.05 38.5662C856.05 35.6738 855.689 32.7813 855.086 30.1299Z" fill="white"/>
<path d="M899.437 38.566C899.437 54.354 909.561 67.7317 923.541 72.673V4.45898C909.561 9.40028 899.437 22.7779 899.437 38.566Z" fill="#428BC1"/>
<path d="M41.515 172.688C41.3944 171.483 41.1534 170.277 40.7918 169.072H-29.471L-30.1941 172.688H41.515Z" fill="white"/>
<path d="M-30.0737 182.329C-29.9532 183.535 -29.7122 184.74 -29.3506 185.945H40.9122L41.6353 182.329H-30.0737Z" fill="white"/>
<path d="M0.900146 141.715V213.424L4.51573 213.785V141.353C3.31053 141.353 2.10534 141.474 0.900146 141.715Z" fill="white"/>
<path d="M-30.4346 177.509C-30.4346 179.196 -30.3141 180.763 -30.073 182.33H41.636C41.8771 180.763 41.9976 179.196 41.9976 177.509C41.9976 175.822 41.8771 174.255 41.636 172.688H-30.073C-30.3141 174.255 -30.4346 175.822 -30.4346 177.509Z" fill="#2A5F9E"/>
<path d="M-8.74072 210.651C-5.72774 211.977 -2.47371 212.941 0.90083 213.303V141.714C-2.47371 142.196 -5.72774 143.04 -8.74072 144.366V210.651Z" fill="#2A5F9E"/>
<path d="M5.72131 141.353H4.51611V169.072H40.913C37.0564 153.164 22.8351 141.353 5.72131 141.353Z" fill="#ED4C5C"/>
<path d="M4.51611 185.945V213.664H5.72131C22.8351 213.664 37.0564 201.853 40.913 185.945H4.51611Z" fill="#ED4C5C"/>
<path d="M135.933 141.353C122.917 141.353 111.467 148.223 105.08 158.588V181.607H100.018C102.067 199.685 117.373 213.665 135.933 213.665C148.949 213.665 160.398 206.795 166.786 196.431V173.411H171.848C169.799 155.334 154.493 141.353 135.933 141.353Z" fill="#FFE62E"/>
<path d="M100.621 169.675L171.245 185.342C171.848 182.812 172.089 180.16 172.089 177.509C172.089 176.183 171.968 174.737 171.848 173.411L105.08 158.587C103.031 161.962 101.464 165.698 100.621 169.675Z" fill="white"/>
<path d="M171.245 185.343L100.621 169.675C100.139 172.206 99.7771 174.857 99.7771 177.509C99.7771 178.835 99.8976 180.281 100.018 181.606L166.786 196.43C168.835 193.056 170.401 189.32 171.245 185.343Z" fill="#3E4347"/>
<path d="M123.881 179.076C123.881 185.825 129.184 191.369 135.813 191.369C142.441 191.369 147.744 185.825 147.744 179.076C147.744 176.545 147.021 174.134 145.695 172.085C146.418 173.532 146.78 175.219 146.78 177.027C146.78 182.089 143.526 186.427 139.067 187.753L136.656 181.848V172.326C137.138 172.568 137.861 172.809 138.946 173.17C142.803 174.857 145.816 169.796 145.816 169.796C145.816 169.796 143.044 170.157 140.874 167.988C139.428 166.542 137.741 167.265 136.777 167.867V166.662H138.705C138.705 166.662 139.187 160.998 135.933 159.431V163.529H134.125V166.662H134.728V167.867C133.764 167.265 132.197 166.903 130.871 168.108C128.581 170.278 125.93 169.916 125.93 169.916C125.93 169.916 128.943 174.978 132.8 173.291C133.643 172.929 134.246 172.688 134.848 172.447V181.727L132.438 187.632C128.099 186.066 124.966 181.968 124.966 176.906C124.966 175.098 125.327 173.532 126.05 171.965C124.725 174.134 123.881 176.424 123.881 179.076Z" fill="#ED4C5C"/>
<path d="M122.917 187.874V178.232C119.06 176.183 119.06 173.291 119.06 173.291H116.047C116.047 178.714 119.06 179.437 119.06 179.437V187.874H122.917Z" fill="#ED4C5C"/>
<path d="M152.805 173.291C152.805 173.291 152.805 176.183 148.949 178.353V187.994H152.805V179.558C152.805 179.558 155.818 178.835 155.818 173.411C155.818 173.291 152.805 173.291 152.805 173.291Z" fill="#ED4C5C"/>
<path d="M135.812 193.417C131.474 193.417 127.738 191.248 125.327 187.874L121.712 193.417C121.712 193.417 124.966 193.176 127.979 194.864C130.992 196.551 131.835 194.864 135.812 194.864C139.79 194.864 140.633 196.551 143.646 194.864C146.659 193.176 149.913 193.417 149.913 193.417L146.298 187.874C143.887 191.248 140.151 193.417 135.812 193.417Z" fill="#ED4C5C"/>
<path d="M229.989 177.509C229.989 193.297 240.112 206.675 254.092 211.616V143.402C240.112 148.343 229.989 161.721 229.989 177.509Z" fill="#F2B200"/>
<path d="M302.3 177.509C302.3 161.721 292.297 148.343 278.196 143.402V211.616C292.297 206.675 302.3 193.297 302.3 177.509Z" fill="#83BF4F"/>
<path d="M254.093 211.616C257.829 212.942 261.926 213.665 266.145 213.665C270.363 213.665 274.46 212.942 278.197 211.616V143.402C274.46 142.076 270.363 141.353 266.145 141.353C261.926 141.353 257.829 142.076 254.093 143.402V211.616Z" fill="#F9F9F9"/>
<path d="M431.548 169.072C427.691 153.164 413.47 141.353 396.356 141.353H395.151V169.072H431.548Z" fill="#ED4C5C"/>
<path d="M378.278 146.174C369.842 151.115 363.575 159.31 361.165 169.072H378.278V146.174Z" fill="#ED4C5C"/>
<path d="M361.165 185.945C363.575 195.707 369.842 203.902 378.278 208.844V185.945H361.165Z" fill="#ED4C5C"/>
<path d="M395.151 213.664H396.356C413.47 213.664 427.691 201.853 431.548 185.945H395.151V213.664Z" fill="#ED4C5C"/>
<path d="M431.548 169.073H395.151V141.353C389.005 141.594 383.22 143.282 378.278 146.174V169.073H361.165C360.562 171.724 360.2 174.617 360.2 177.509C360.2 180.402 360.562 183.294 361.165 185.945H378.278V208.844C383.22 211.737 389.005 213.424 395.151 213.665V185.945H431.548C432.151 183.294 432.512 180.402 432.512 177.509C432.512 174.617 432.151 171.724 431.548 169.073Z" fill="white"/>
<path d="M490.412 177.509C490.412 193.297 500.535 206.675 514.516 211.616V143.402C500.535 148.343 490.412 161.721 490.412 177.509Z" fill="#428BC1"/>
<path d="M562.724 177.509C562.724 161.721 552.721 148.343 538.62 143.402V211.616C552.721 206.675 562.724 193.297 562.724 177.509Z" fill="#ED4C5C"/>
<path d="M514.516 211.616C518.252 212.942 522.35 213.665 526.568 213.665C530.786 213.665 534.884 212.942 538.62 211.616V143.402C534.884 142.076 530.786 141.353 526.568 141.353C522.35 141.353 518.252 142.076 514.516 143.402V211.616Z" fill="#F9F9F9"/>
<path d="M664.01 142.076H649.548C635.447 144.969 624.239 156.056 621.346 170.278V184.74C624.239 198.961 635.447 210.049 649.548 212.942H664.01C678.232 210.049 689.319 198.841 692.212 184.74V170.278C689.319 156.056 678.111 144.969 664.01 142.076Z" fill="#F9F9F9"/>
<path d="M664.01 170.278V142.076C661.72 141.594 659.31 141.353 656.779 141.353C654.248 141.353 651.838 141.594 649.548 142.076V170.278H621.346C620.864 172.568 620.623 174.978 620.623 177.509C620.623 180.04 620.864 182.45 621.346 184.74H649.548V212.942C651.838 213.424 654.248 213.665 656.779 213.665C659.31 213.665 661.72 213.424 664.01 212.942V184.74H692.212C692.694 182.45 692.935 180.04 692.935 177.509C692.935 174.978 692.694 172.568 692.212 170.278H664.01Z" fill="#ED4C5C"/>
<path d="M639.906 163.047H635.085L636.29 155.815L635.085 148.584H639.906L638.701 155.815L639.906 163.047Z" fill="#ED4C5C"/>
<path d="M630.264 158.226V153.405L637.495 154.61L644.727 153.405V158.226L637.495 157.02L630.264 158.226Z" fill="#ED4C5C"/>
<path d="M678.473 163.047H673.652L674.857 155.815L673.652 148.584H678.473L677.267 155.815L678.473 163.047Z" fill="#ED4C5C"/>
<path d="M668.83 158.226V153.405L676.062 154.61L683.293 153.405V158.226L676.062 157.02L668.83 158.226Z" fill="#ED4C5C"/>
<path d="M639.906 206.434H635.085C635.085 206.434 636.29 201.01 636.29 199.202C636.29 197.395 635.085 191.971 635.085 191.971H639.906C639.906 191.971 638.701 197.395 638.701 199.202C638.701 201.01 639.906 206.434 639.906 206.434Z" fill="#ED4C5C"/>
<path d="M630.264 201.613V196.792L637.495 197.997L644.727 196.792V201.613L637.495 200.408L630.264 201.613Z" fill="#ED4C5C"/>
<path d="M678.473 206.434H673.652L674.857 199.202L673.652 191.971H678.473L677.267 199.202L678.473 206.434Z" fill="#ED4C5C"/>
<path d="M668.83 201.613V196.792L676.062 197.997L683.293 196.792V201.613L676.062 200.408L668.83 201.613Z" fill="#ED4C5C"/>
<path d="M750.835 177.509C750.835 184.62 752.884 191.248 756.379 196.792H817.482C820.977 191.248 823.026 184.62 823.026 177.509C823.026 170.398 820.977 163.77 817.482 158.226H756.379C752.884 163.77 750.835 170.398 750.835 177.509Z" fill="#2A5F9E"/>
<path d="M817.603 158.226C811.215 148.102 799.887 141.353 786.991 141.353C774.096 141.353 762.767 148.102 756.379 158.226H817.603Z" fill="#ED4C5C"/>
<path d="M756.379 196.792C762.767 206.916 774.095 213.665 786.991 213.665C799.887 213.665 811.215 206.916 817.603 196.792H756.379Z" fill="#ED4C5C"/>
<path d="M786.991 189.561C793.647 189.561 799.043 184.165 799.043 177.509C799.043 170.853 793.647 165.457 786.991 165.457C780.335 165.457 774.939 170.853 774.939 177.509C774.939 184.165 780.335 189.561 786.991 189.561Z" fill="white"/>
<path d="M950.948 189.561C944.319 189.561 938.896 184.137 938.896 177.509H891.652V203.059C898.16 209.567 907.199 213.665 917.202 213.665C932.99 213.665 946.368 203.541 951.309 189.561H950.948Z" fill="#ED4C5C"/>
<path d="M950.948 165.457H951.309C946.368 151.477 932.99 141.353 917.202 141.353C907.199 141.353 898.16 145.451 891.652 151.959V177.509H938.896C938.896 170.881 944.319 165.457 950.948 165.457Z" fill="#699635"/>
<path d="M951.309 165.457H891.652V189.561H951.309C952.635 185.825 953.358 181.727 953.358 177.509C953.358 173.291 952.635 169.193 951.309 165.457Z" fill="#F9F9F9"/>
<path d="M891.652 151.959C885.144 158.467 881.047 167.506 881.047 177.509C881.047 187.512 885.144 196.551 891.652 203.059L905.151 189.561V165.457L891.652 151.959Z" fill="#3E4347"/>
</g>
</svg>
