<svg width="1440" height="866" viewBox="0 0 1440 866" fill="none" xmlns="http://www.w3.org/2000/svg">
<mask id="mask0" style="mask-type:alpha" maskUnits="userSpaceOnUse" x="0" y="0" width="1440" height="866">
<rect width="1440" height="866" fill="#001C63"/>
</mask>
<g mask="url(#mask0)">
<path d="M1526.28 780.326C1525.88 780.326 1525.58 780.125 1525.48 779.725L1407.48 293.826C1407.38 293.426 1407.68 292.926 1408.08 292.826C1408.48 292.726 1408.98 293.025 1409.08 293.425L1527.08 779.326C1527.18 779.726 1526.88 780.226 1526.48 780.326C1526.38 780.326 1526.38 780.326 1526.28 780.326Z" fill="#2240CD"/>
<path d="M1516.68 763.826C1516.38 763.826 1515.98 763.625 1515.88 763.225L1390.08 339.725C1389.98 339.325 1390.18 338.825 1390.58 338.725C1390.98 338.625 1391.48 338.825 1391.58 339.225L1517.38 762.725C1517.48 763.125 1517.28 763.625 1516.88 763.725C1516.88 763.825 1516.78 763.826 1516.68 763.826Z" fill="#2240CD"/>
<path d="M1513.38 758.025C1513.08 758.025 1512.68 757.825 1512.58 757.425L1356.38 256.225C1356.28 255.825 1356.48 255.325 1356.88 255.225C1357.28 255.125 1357.78 255.325 1357.88 255.725L1514.08 756.925C1514.18 757.325 1513.98 757.825 1513.58 757.925C1513.58 758.025 1513.48 758.025 1513.38 758.025Z" fill="#2240CD"/>
<path d="M1510.08 752.326C1509.78 752.326 1509.48 752.126 1509.28 751.826L1421.38 481.626C1421.28 481.226 1421.48 480.726 1421.88 480.626C1422.28 480.526 1422.78 480.726 1422.88 481.126L1510.78 751.326C1510.88 751.726 1510.68 752.226 1510.28 752.326C1510.18 752.326 1510.18 752.326 1510.08 752.326Z" fill="#2240CD"/>
<path d="M1356.28 279.225C1355.98 279.225 1355.68 279.025 1355.48 278.725L1198.88 -203.075C1198.78 -203.475 1198.98 -203.975 1199.38 -204.075C1199.78 -204.175 1200.28 -203.975 1200.38 -203.575L1356.98 278.225C1357.08 278.625 1356.88 279.125 1356.48 279.225C1356.38 279.225 1356.28 279.225 1356.28 279.225Z" fill="#2240CD"/>
<path d="M1410.98 447.626C1410.68 447.626 1410.38 447.426 1410.18 447.126L1335.78 218.126C1335.68 217.726 1335.88 217.226 1336.28 217.126C1336.68 217.026 1337.18 217.226 1337.28 217.626L1411.68 446.626C1411.78 447.026 1411.58 447.526 1411.18 447.626C1411.18 447.626 1411.08 447.626 1410.98 447.626Z" fill="#2240CD"/>
<path d="M1458.78 604.626C1458.48 604.626 1458.18 604.426 1457.98 604.126L1438.38 546.126C1438.28 545.726 1438.48 545.226 1438.88 545.126C1439.28 545.026 1439.78 545.226 1439.88 545.626L1459.48 603.626C1459.58 604.026 1459.38 604.526 1458.98 604.626C1458.98 604.626 1458.88 604.626 1458.78 604.626Z" fill="#2240CD"/>
<path d="M1503.28 740.626C1502.98 740.626 1502.68 740.426 1502.48 740.126L1332.28 252.126C1332.18 251.726 1332.38 251.226 1332.78 251.126C1333.18 251.026 1333.68 251.226 1333.78 251.626L1503.98 739.626C1504.08 740.026 1503.88 740.526 1503.48 740.626C1503.48 740.626 1503.38 740.626 1503.28 740.626Z" fill="#2240CD"/>
<path d="M1499.88 734.725C1499.58 734.725 1499.28 734.525 1499.18 734.225L1264.68 81.2254C1264.58 80.8254 1264.78 80.3254 1265.18 80.2254C1265.58 80.1254 1266.08 80.3254 1266.18 80.7254L1500.68 733.725C1500.78 734.125 1500.58 734.625 1500.18 734.725C1499.98 734.725 1499.88 734.725 1499.88 734.725Z" fill="#2240CD"/>
<path d="M1496.38 728.725C1496.08 728.725 1495.78 728.525 1495.68 728.225L1304.58 209.925C1304.38 209.525 1304.68 209.025 1305.08 208.925C1305.48 208.725 1305.98 209.025 1306.08 209.425L1497.18 727.725C1497.38 728.125 1497.08 728.625 1496.68 728.725C1496.58 728.725 1496.48 728.725 1496.38 728.725Z" fill="#2240CD"/>
<path d="M1422.08 351.126C1421.68 351.126 1421.38 350.925 1421.28 350.525L1381.18 185.425C1381.08 185.025 1381.38 184.525 1381.78 184.425C1382.18 184.325 1382.68 184.625 1382.78 185.025L1422.88 350.126C1422.98 350.526 1422.68 351.026 1422.28 351.126C1422.18 351.126 1422.18 351.126 1422.08 351.126Z" fill="#2240CD"/>
<path d="M1436.08 537.326C1435.78 537.326 1435.48 537.126 1435.28 536.826L1431.18 524.725C1431.08 524.325 1431.28 523.825 1431.68 523.725C1432.08 523.625 1432.58 523.825 1432.68 524.225L1436.78 536.326C1436.88 536.726 1436.68 537.226 1436.28 537.326C1436.28 537.326 1436.18 537.326 1436.08 537.326Z" fill="#2240CD"/>
<path d="M1652.98 923.825C1652.88 923.825 1652.88 923.825 1652.78 923.825L866.177 862.225C864.777 862.125 863.777 860.925 863.877 859.525C863.977 858.125 865.176 857.125 866.576 857.225L1653.18 918.825C1654.58 918.925 1655.58 920.125 1655.48 921.525C1655.28 922.825 1654.18 923.825 1652.98 923.825Z" fill="#2240CD"/>
<path d="M1643.08 913.225C1642.98 913.225 1642.88 913.225 1642.78 913.225L668.876 802.925C667.476 802.725 666.577 801.525 666.677 800.225C666.877 798.825 668.076 797.925 669.376 798.025L1643.28 908.325C1644.68 908.525 1645.58 909.725 1645.48 911.025C1645.48 912.225 1644.38 913.225 1643.08 913.225Z" fill="#2240CD"/>
<path d="M1633.28 902.625C1633.18 902.625 1633.08 902.625 1632.88 902.625L1231.88 844.125C1230.48 843.925 1229.58 842.625 1229.78 841.325C1229.98 839.925 1231.28 839.025 1232.58 839.225L1633.58 897.725C1634.98 897.925 1635.88 899.225 1635.68 900.525C1635.58 901.725 1634.48 902.625 1633.28 902.625Z" fill="#2240CD"/>
<path d="M1202.48 840.925C1202.28 840.925 1202.08 840.925 1201.98 840.925L947.277 803.725C945.277 803.425 943.877 801.525 944.177 799.525C944.477 797.525 946.377 796.125 948.377 796.425L1203.08 833.625C1205.08 833.925 1206.48 835.825 1206.18 837.825C1205.88 839.625 1204.28 840.925 1202.48 840.925Z" fill="#2240CD"/>
<path d="M1623.48 891.925C1623.38 891.925 1623.18 891.925 1623.08 891.925L997.876 781.626C996.576 781.426 995.676 780.125 995.876 778.725C996.076 777.425 997.376 776.425 998.776 776.725L1623.98 887.025C1625.28 887.225 1626.18 888.525 1625.98 889.925C1625.68 891.125 1624.68 891.925 1623.48 891.925Z" fill="#2240CD"/>
<path d="M1613.58 881.325C1613.38 881.325 1613.28 881.325 1613.08 881.225L714.877 697.025C713.577 696.725 712.676 695.426 712.976 694.126C713.276 692.826 714.577 691.925 715.877 692.225L1614.08 876.425C1615.38 876.725 1616.28 878.025 1615.98 879.325C1615.78 880.525 1614.78 881.325 1613.58 881.325Z" fill="#2240CD"/>
<path d="M1603.78 870.725C1603.58 870.725 1603.38 870.726 1603.18 870.626L590.076 635.626C588.776 635.326 587.877 634.026 588.177 632.626C588.477 631.326 589.777 630.425 591.177 630.725L1604.28 865.725C1605.58 866.025 1606.48 867.325 1606.18 868.725C1605.88 869.925 1604.88 870.725 1603.78 870.725Z" fill="#2240CD"/>
<path d="M1593.88 860.025C1593.68 860.025 1593.48 860.025 1593.28 859.925L948.176 693.925C946.876 693.625 946.076 692.225 946.376 690.925C946.676 689.625 948.076 688.825 949.376 689.125L1594.48 855.125C1595.78 855.425 1596.58 856.825 1596.28 858.125C1595.98 859.325 1594.98 860.025 1593.88 860.025Z" fill="#2240CD"/>
<path d="M615.476 608.325C615.276 608.325 615.076 608.325 614.876 608.225L75.0764 469.325C73.7764 469.025 72.9764 467.625 73.2764 466.325C73.5764 465.025 74.9764 464.225 76.2764 464.525L616.076 603.425C617.376 603.725 618.176 605.125 617.876 606.425C617.576 607.525 616.576 608.325 615.476 608.325Z" fill="#2240CD"/>
<path d="M1314.58 721.625C1314.48 721.625 1314.28 721.625 1314.18 721.525L1252.58 699.025C1251.98 698.825 1251.58 698.125 1251.88 697.425C1252.08 696.825 1252.78 696.425 1253.48 696.725L1315.08 719.225C1315.68 719.425 1316.08 720.125 1315.78 720.825C1315.58 721.325 1315.08 721.625 1314.58 721.625Z" fill="#2240CD"/>
<path d="M885.776 681.625C885.276 681.625 884.776 681.525 884.176 681.425L529.476 590.125C526.076 589.225 524.076 585.825 524.976 582.425C525.876 579.025 529.276 577.025 532.676 577.925L887.376 669.225C890.776 670.125 892.776 673.525 891.876 676.925C891.176 679.725 888.576 681.625 885.776 681.625Z" fill="#2240CD"/>
<path d="M1583.98 849.425C1583.78 849.425 1583.58 849.425 1583.28 849.325L1219.58 747.025C1218.28 746.625 1217.48 745.325 1217.88 743.925C1218.28 742.625 1219.58 741.825 1220.98 742.225L1584.78 844.525C1586.08 844.925 1586.88 846.225 1586.48 847.625C1586.08 848.625 1585.08 849.425 1583.98 849.425Z" fill="#2240CD"/>
<path d="M1201.58 740.625C1201.48 740.625 1201.38 740.625 1201.28 740.625L1076.38 705.525C1075.68 705.325 1075.38 704.625 1075.48 704.025C1075.58 703.425 1076.38 703.025 1076.98 703.125L1201.88 738.225C1202.58 738.425 1202.88 739.125 1202.78 739.725C1202.68 740.225 1202.18 740.625 1201.58 740.625Z" fill="#2240CD"/>
<path d="M1574.08 838.725C1573.88 838.725 1573.58 838.725 1573.38 838.625L563.677 531.925C562.377 531.525 561.677 530.125 561.977 528.825C562.277 527.525 563.777 526.725 565.077 527.125L1574.78 833.825C1576.08 834.225 1576.78 835.625 1576.48 836.925C1576.18 838.025 1575.18 838.725 1574.08 838.725Z" fill="#2240CD"/>
<path d="M1564.18 828.025C1563.88 828.025 1563.68 828.025 1563.38 827.925L322.476 424.525C321.176 424.125 320.476 422.725 320.876 421.425C321.276 420.125 322.676 419.425 323.976 419.825L1564.88 823.225C1566.18 823.625 1566.88 825.025 1566.48 826.325C1566.18 827.325 1565.28 828.025 1564.18 828.025Z" fill="#2240CD"/>
<path d="M1554.28 817.325C1553.98 817.325 1553.78 817.325 1553.48 817.225L488.077 449.325C486.777 448.925 486.077 447.426 486.577 446.126C486.977 444.826 488.477 444.126 489.777 444.626L1555.08 812.525C1556.38 812.925 1557.08 814.425 1556.58 815.725C1556.28 816.725 1555.28 817.325 1554.28 817.325Z" fill="#2240CD"/>
<path d="M1544.38 806.626C1544.08 806.626 1543.78 806.625 1543.58 806.425L1343.98 733.626C1342.68 733.126 1342.08 731.725 1342.48 730.425C1342.98 729.125 1344.38 728.425 1345.68 728.925L1545.28 801.725C1546.58 802.225 1547.18 803.625 1546.78 804.925C1546.28 806.025 1545.38 806.626 1544.38 806.626Z" fill="#2240CD"/>
<path d="M1057.78 700.125C1057.68 700.125 1057.58 700.125 1057.48 700.125L1033.08 693.225C1032.38 693.025 1032.08 692.325 1032.18 691.725C1032.28 691.125 1033.08 690.725 1033.68 690.825L1058.08 697.725C1058.78 697.925 1059.08 698.625 1058.98 699.225C1058.78 699.825 1058.28 700.125 1057.78 700.125Z" fill="#2240CD"/>
<path d="M1383.68 746.325C1383.48 746.325 1383.28 746.225 1383.18 746.125L916.977 326.725C916.677 326.425 916.577 325.925 916.877 325.625C917.177 325.325 917.677 325.225 917.977 325.525L1384.18 744.925C1384.48 745.225 1384.58 745.725 1384.28 746.025C1384.08 746.225 1383.88 746.325 1383.68 746.325Z" fill="#2240CD"/>
<path d="M874.777 288.725C874.577 288.725 874.377 288.625 874.177 288.525L732.177 160.825C731.777 160.525 731.777 159.925 732.077 159.525C732.377 159.125 732.977 159.125 733.377 159.425L875.377 287.125C875.777 287.425 875.777 288.025 875.477 288.425C875.277 288.625 874.977 288.725 874.777 288.725Z" fill="#2240CD"/>
<path d="M1393.78 751.026C1393.38 751.026 1392.88 750.826 1392.58 750.526L681.677 95.4256C680.977 94.7256 680.877 93.6256 681.577 92.9256C682.277 92.2256 683.377 92.1256 684.077 92.8256L1394.98 747.925C1395.68 748.625 1395.78 749.725 1395.08 750.425C1394.68 750.825 1394.18 751.026 1393.78 751.026Z" fill="#2240CD"/>
<path d="M1403.88 754.726C1403.48 754.726 1402.98 754.526 1402.68 754.226L1183.98 547.526C1183.28 546.826 1183.28 545.726 1183.88 545.026C1184.58 544.326 1185.68 544.325 1186.38 544.925L1405.08 751.626C1405.78 752.326 1405.78 753.426 1405.18 754.126C1404.78 754.526 1404.38 754.726 1403.88 754.726Z" fill="#2240CD"/>
<path d="M1170.18 534.726C1169.48 534.726 1168.88 534.526 1168.38 534.026L1128.18 496.026C1127.08 495.026 1127.08 493.326 1128.08 492.226C1129.08 491.126 1130.78 491.126 1131.88 492.126L1172.08 530.126C1173.18 531.126 1173.18 532.826 1172.18 533.926C1171.68 534.426 1170.88 534.726 1170.18 534.726Z" fill="#2240CD"/>
<path d="M1120.28 485.826C1120.08 485.826 1119.88 485.726 1119.68 485.626L898.877 276.925C898.477 276.625 898.477 276.026 898.877 275.626C899.177 275.226 899.777 275.226 900.177 275.626L1120.98 484.326C1121.38 484.626 1121.38 485.226 1120.98 485.626C1120.78 485.726 1120.58 485.826 1120.28 485.826Z" fill="#2240CD"/>
<path d="M1414.08 758.426C1413.68 758.426 1413.18 758.226 1412.88 757.926L1136.78 489.726C1136.08 489.026 1136.08 487.926 1136.78 487.226C1137.48 486.526 1138.58 486.526 1139.28 487.226L1415.38 755.426C1416.08 756.126 1416.08 757.226 1415.38 757.926C1414.98 758.226 1414.48 758.426 1414.08 758.426Z" fill="#2240CD"/>
<path d="M1424.28 762.126C1423.78 762.126 1423.38 761.926 1422.98 761.626L805.077 143.726C804.377 143.026 804.377 141.926 805.077 141.226C805.777 140.526 806.877 140.526 807.577 141.226L1425.48 759.126C1426.18 759.826 1426.18 760.926 1425.48 761.626C1425.18 762.026 1424.78 762.126 1424.28 762.126Z" fill="#2240CD"/>
<path d="M1434.58 765.925C1434.08 765.925 1433.68 765.725 1433.28 765.425L730.877 40.8255C730.177 40.1255 730.177 39.0255 730.877 38.3255C731.577 37.6255 732.677 37.6255 733.377 38.3255L1435.78 762.925C1436.48 763.625 1436.48 764.725 1435.78 765.425C1435.48 765.725 1434.98 765.925 1434.58 765.925Z" fill="#2240CD"/>
<path d="M1444.88 769.625C1444.38 769.625 1443.98 769.425 1443.58 769.025L1180.38 488.325C1179.68 487.625 1179.78 486.525 1180.48 485.825C1181.18 485.125 1182.28 485.225 1182.98 485.925L1446.18 766.625C1446.88 767.325 1446.78 768.425 1446.08 769.125C1445.78 769.525 1445.28 769.625 1444.88 769.625Z" fill="#2240CD"/>
<path d="M1161.88 468.725C1161.18 468.725 1160.48 468.425 1159.88 467.925L990.877 287.625C989.877 286.525 989.877 284.825 990.977 283.825C992.077 282.825 993.777 282.825 994.777 283.925L1163.78 464.225C1164.78 465.325 1164.78 467.025 1163.68 468.025C1163.28 468.525 1162.58 468.725 1161.88 468.725Z" fill="#2240CD"/>
<path d="M1455.18 773.425C1454.68 773.425 1454.18 773.226 1453.88 772.826L1077.38 356.526C1076.68 355.826 1076.78 354.626 1077.48 354.026C1078.18 353.426 1079.38 353.426 1079.98 354.126L1456.48 770.425C1457.18 771.125 1457.08 772.325 1456.38 772.925C1456.08 773.325 1455.68 773.425 1455.18 773.425Z" fill="#2240CD"/>
<path d="M1465.58 777.225C1465.08 777.225 1464.58 777.025 1464.28 776.625L969.777 208.025C969.177 207.325 969.177 206.125 969.977 205.525C970.677 204.925 971.877 204.925 972.477 205.725L1466.98 774.325C1467.58 775.025 1467.58 776.225 1466.78 776.825C1466.48 777.025 1465.98 777.225 1465.58 777.225Z" fill="#2240CD"/>
<path d="M1476.08 781.025C1475.58 781.025 1475.08 780.825 1474.68 780.425L967.077 171.525C966.477 170.725 966.577 169.625 967.277 169.025C968.077 168.425 969.177 168.525 969.777 169.225L1477.38 778.125C1477.98 778.925 1477.88 780.025 1477.18 780.625C1476.88 780.925 1476.48 781.025 1476.08 781.025Z" fill="#2240CD"/>
<path d="M1486.48 784.826C1485.98 784.826 1485.48 784.626 1485.08 784.126L1193.38 417.626C1192.78 416.826 1192.88 415.726 1193.68 415.126C1194.48 414.526 1195.58 414.625 1196.18 415.425L1487.88 781.925C1488.48 782.725 1488.38 783.825 1487.58 784.425C1487.28 784.725 1486.88 784.826 1486.48 784.826Z" fill="#2240CD"/>
<path d="M1042.38 226.825C1041.88 226.825 1041.38 226.625 1040.98 226.125L794.077 -83.9747C793.477 -84.7747 793.577 -85.8747 794.377 -86.4747C795.177 -87.0747 796.277 -86.9746 796.877 -86.1746L1043.78 224.025C1044.38 224.825 1044.28 225.925 1043.48 226.525C1043.18 226.725 1042.78 226.825 1042.38 226.825Z" fill="#2240CD"/>
<path d="M1165.98 384.925C1164.68 384.925 1163.28 384.325 1162.38 383.225L1000.18 179.425C998.577 177.425 998.977 174.625 1000.88 173.025C1002.88 171.425 1005.68 171.825 1007.28 173.725L1169.48 377.525C1171.08 379.525 1170.68 382.325 1168.78 383.925C1167.98 384.525 1166.98 384.925 1165.98 384.925Z" fill="#2240CD"/>
<path d="M1497.08 788.626C1496.58 788.626 1495.98 788.425 1495.68 787.925L1348.68 593.725C1348.08 592.925 1348.28 591.825 1348.98 591.225C1349.78 590.625 1350.88 590.825 1351.48 591.525L1498.48 785.725C1499.08 786.525 1498.88 787.625 1498.18 788.225C1497.78 788.525 1497.38 788.626 1497.08 788.626Z" fill="#2240CD"/>
<path d="M1342.38 583.425C1342.08 583.425 1341.88 583.326 1341.68 583.026L1290.08 514.826C1289.78 514.426 1289.88 513.826 1290.28 513.626C1290.68 513.326 1291.28 513.426 1291.48 513.826L1343.08 582.026C1343.38 582.426 1343.28 583.025 1342.88 583.225C1342.78 583.325 1342.58 583.425 1342.38 583.425Z" fill="#2240CD"/>
<path d="M1507.58 792.525C1506.98 792.525 1506.48 792.225 1506.08 791.825L1134.38 272.325C1133.78 271.525 1133.98 270.425 1134.78 269.825C1135.58 269.225 1136.68 269.425 1137.28 270.225L1508.98 789.725C1509.58 790.525 1509.38 791.625 1508.58 792.225C1508.28 792.425 1507.98 792.525 1507.58 792.525Z" fill="#2240CD"/>
<path d="M1518.18 796.426C1517.58 796.426 1517.08 796.126 1516.68 795.626L1108.08 188.026C1107.58 187.226 1107.78 186.126 1108.58 185.526C1109.38 184.926 1110.48 185.226 1111.08 186.026L1519.68 793.526C1520.18 794.326 1519.98 795.426 1519.18 796.026C1518.88 796.326 1518.58 796.426 1518.18 796.426Z" fill="#2240CD"/>
<path d="M1528.88 800.326C1528.28 800.326 1527.68 800.026 1527.38 799.526L1216.78 304.526C1216.28 303.726 1216.48 302.626 1217.38 302.026C1218.18 301.526 1219.28 301.726 1219.88 302.626L1530.48 797.626C1530.98 798.426 1530.78 799.526 1529.88 800.126C1529.48 800.226 1529.18 800.326 1528.88 800.326Z" fill="#2240CD"/>
<path d="M786.777 100.425C785.577 100.425 784.377 99.9254 783.477 99.0254L635.977 -53.1746C634.277 -54.9746 634.277 -57.8746 636.077 -59.5746C637.877 -61.2746 640.777 -61.2746 642.477 -59.4746L789.977 92.7253C791.677 94.5253 791.677 97.4253 789.877 99.1253C789.077 100.025 787.877 100.425 786.777 100.425Z" fill="#2240CD"/>
<path d="M1282.88 504.825C1282.58 504.825 1282.38 504.725 1282.18 504.425L1272.08 491.126C1271.78 490.726 1271.88 490.125 1272.28 489.925C1272.68 489.625 1273.28 489.726 1273.48 490.126L1283.58 503.425C1283.88 503.825 1283.78 504.426 1283.38 504.626C1283.28 504.726 1283.08 504.825 1282.88 504.825Z" fill="#2240CD"/>
<path d="M1119.38 474.926C1118.28 474.926 1117.08 474.526 1116.18 473.626L1084.38 442.726C1082.58 441.026 1082.58 438.126 1084.28 436.326C1085.98 434.526 1088.88 434.526 1090.68 436.226L1122.48 467.126C1124.28 468.826 1124.28 471.726 1122.58 473.526C1121.78 474.526 1120.58 474.926 1119.38 474.926Z" fill="#2240CD"/>
</g>
</svg>
