<svg width="51" height="60" viewBox="0 0 51 60" fill="none" xmlns="http://www.w3.org/2000/svg">
<path d="M50.3746 11.4179C50.3746 9.62687 49.703 8.67538 48.0239 8.05971C40.8597 5.48508 33.6395 2.85448 26.4754 0.279851C26.2515 0.16791 26.0276 0.11194 25.8037 0C25.4119 0 25.0201 0 24.6283 0C21.55 1.1194 18.4716 2.23881 15.3373 3.35821C11.0276 4.92537 6.66194 6.49254 2.35224 8.05971C0.673141 8.67538 0.00150144 9.62687 0.00150144 11.4179C0.00150144 17.2948 0.0574715 23.2276 0.00150144 29.1045C-0.0544687 34.1418 1.45672 38.6754 4.14329 42.8172C6.94179 47.0709 10.5799 50.541 14.5537 53.6754C17.3522 55.8582 20.3186 57.7612 23.453 59.4403C23.8448 59.6642 24.2925 59.8321 24.7403 60C25.0761 60 25.4679 60 25.8037 60C28.7701 58.7127 31.4567 56.9776 34.0873 55.1306C38.0052 52.3321 41.6433 49.1978 44.6097 45.3358C47.0724 42.1455 49.0313 38.6754 49.8709 34.6455C50.2067 33.0224 50.3746 31.3433 50.4306 29.7202C50.4306 23.6754 50.3746 17.5187 50.3746 11.4179Z" fill="#D0D4EA"/>
<path d="M25.0321 16.1387V39.3487" stroke="#2240CD" stroke-width="3" stroke-miterlimit="10"/>
<path d="M36.6368 27.7437H13.4267" stroke="#2240CD" stroke-width="3" stroke-miterlimit="10"/>
</svg>
