<svg width="51" height="60" viewBox="0 0 51 60" fill="none" xmlns="http://www.w3.org/2000/svg">
<path d="M50.4801 11.4179C50.4801 9.62687 49.8084 8.67538 48.1293 8.05971C40.9652 5.48508 33.745 2.85448 26.5808 0.279851C26.357 0.16791 26.1331 0.11194 25.9092 0C25.5174 0 25.1256 0 24.7338 0C21.6555 1.1194 18.5771 2.23881 15.4428 3.35821C11.1331 4.92537 6.76741 6.49254 2.45771 8.05971C0.77861 8.67538 0.10697 9.62687 0.10697 11.4179C0.10697 17.2948 0.16294 23.2276 0.10697 29.1045C0.0510001 34.1418 1.56219 38.6754 4.24875 42.8172C7.04726 47.0709 10.6853 50.541 14.6592 53.6754C17.4577 55.8582 20.4241 57.7612 23.5584 59.4403C23.9502 59.6642 24.398 59.8321 24.8458 60C25.1816 60 25.5734 60 25.9092 60C28.8756 58.7127 31.5622 56.9776 34.1928 55.1306C38.1107 52.3321 41.7487 49.1978 44.7151 45.3358C47.1778 42.1455 49.1368 38.6754 49.9763 34.6455C50.3122 33.0224 50.4801 31.3433 50.536 29.7202C50.536 23.6754 50.4801 17.5187 50.4801 11.4179Z" fill="#D0D4EA"/>
<path d="M23.4143 31.8902C23.62 34.7687 24.8596 37.106 27.0989 38.9021C28.1043 39.7138 29.241 40.2492 30.5549 40.3183C31.1319 40.3471 31.566 39.9844 31.606 39.4548C31.6403 38.9309 31.2461 38.5106 30.6692 38.4819C30.0693 38.4531 29.5038 38.2976 28.984 37.9925C26.9104 36.7606 25.7393 34.9068 25.328 32.5408C25.2709 32.2126 25.2823 31.873 25.2537 31.5391C25.2138 31.0728 24.8824 30.7216 24.4426 30.6698C24.0199 30.618 23.5914 30.8828 23.4772 31.3088C23.42 31.4873 23.4315 31.6887 23.4143 31.8902Z" fill="white"/>
<path d="M26.9788 42.1199C23.3514 40.8362 21.0778 38.1995 19.8211 34.6418C19.1413 32.7247 19.3584 30.8192 20.558 29.1324C21.7348 27.4745 23.3742 26.7606 25.3679 27.1751C27.3844 27.5896 28.6697 28.8964 29.1895 30.894C29.3609 31.5503 29.3266 32.2584 29.378 32.9492C29.4523 33.9164 29.8807 34.6763 30.7205 35.1541C32.2114 36.0061 34.1079 35.0793 34.405 33.3407C34.5821 32.3045 34.445 31.2682 34.2336 30.255C33.5595 27.1003 31.9258 24.596 29.1267 22.9668C25.425 20.808 20.678 21.4528 17.6047 24.4751C13.7031 28.3034 13.2575 34.3654 16.5479 38.7292C16.7421 38.9882 16.9135 39.253 16.8449 39.5927C16.7706 39.9726 16.5536 40.2432 16.1708 40.3353C15.771 40.4332 15.4454 40.3008 15.1883 39.9726C14.2857 38.8155 13.5831 37.549 13.1547 36.1386C11.8122 31.7 12.5491 27.6241 15.4968 24.0491C17.5818 21.5103 20.3238 20.0826 23.6084 19.8927C28.167 19.6278 31.6573 21.5852 34.1708 25.3444C35.7074 27.6357 36.3472 30.2205 36.2844 32.978C36.233 35.2808 34.4107 37.1575 32.1257 37.3014C29.9493 37.4396 27.9328 35.7759 27.6072 33.5422C27.5158 32.9262 27.5558 32.2987 27.4872 31.677C27.2701 29.7542 25.2708 28.4243 23.5113 29.0518C22.2717 29.4951 21.6434 30.4853 21.3863 31.7288C21.135 32.9377 21.432 34.0776 21.9518 35.1541C22.8887 37.1 24.3054 38.6255 26.1048 39.7942C26.5047 40.0532 26.9274 40.2547 27.4244 40.2893C27.8185 40.318 28.127 40.6519 28.1841 41.0377C28.2527 41.4579 28.0699 41.8206 27.6929 42.0163C27.6243 42.0509 27.5558 42.0854 27.4872 42.1142C27.3215 42.1199 27.1502 42.1199 26.9788 42.1199Z" fill="#2240CD"/>
<path d="M21.3235 42.1202C21.1065 41.959 20.8551 41.8266 20.6723 41.6251C18.97 39.7541 17.5305 37.7047 16.6051 35.3213C14.9085 30.9519 16.9307 26.3464 20.5981 24.4006C24.5282 22.3108 29.4352 23.7961 31.6631 27.7626C32.4114 29.0924 32.7999 30.5144 32.8227 32.0399C32.8284 32.6674 32.4914 33.0819 31.9487 33.0992C31.4003 33.1165 31.0119 32.7135 30.9947 32.0802C30.9433 30.0711 30.2121 28.3613 28.7383 27.0027C25.5679 24.0724 20.5524 25.0453 18.5873 28.96C17.559 31.0037 17.5933 33.0704 18.5016 35.1486C19.3756 37.1463 20.6438 38.8733 22.1004 40.468C22.4889 40.894 22.546 41.4179 22.209 41.7806C22.0776 41.9187 21.8834 42.0051 21.7234 42.1087C21.592 42.1202 21.4549 42.1202 21.3235 42.1202Z" fill="#2240CD"/>
<path d="M37.204 23.8709C37.1869 23.8939 37.164 23.9112 37.1583 23.94C37.0327 24.3027 36.787 24.5157 36.41 24.5617C36.0215 24.6135 35.7245 24.4581 35.5074 24.1357C34.9133 23.2492 34.2335 22.4374 33.4509 21.7178C30.5947 19.0985 27.2415 17.8319 23.3856 18.1486C19.1812 18.4882 15.8851 20.5262 13.4288 23.963C13.2346 24.2336 13.0518 24.4984 12.6976 24.556C12.3206 24.6193 11.955 24.4696 11.7607 24.153C11.5551 23.8076 11.5323 23.4449 11.7836 23.1283C12.4691 22.2705 13.1203 21.3724 13.8915 20.601C16.0051 18.494 18.5414 17.1181 21.4719 16.5539C26.1276 15.6558 30.2977 16.7669 33.9879 19.7432C35.1418 20.6701 36.1129 21.7754 36.947 23.0016C37.0384 23.134 37.1183 23.2722 37.1983 23.4104C37.204 23.5658 37.204 23.7155 37.204 23.8709Z" fill="#2240CD"/>
<path d="M25.379 12.6449C25.9446 12.7198 26.5101 12.7773 27.0699 12.8752C30.2003 13.4106 32.9309 14.7692 35.2901 16.8992C35.73 17.2965 35.7757 17.8491 35.4215 18.2521C35.0673 18.6551 34.5189 18.6724 34.0734 18.2694C32.4682 16.8244 30.6573 15.7306 28.5894 15.1261C23.7967 13.7272 19.4152 14.6138 15.4622 17.6592C15.2051 17.8549 14.9652 18.0794 14.7196 18.2867C14.2854 18.6551 13.737 18.6378 13.3943 18.2464C13.0458 17.8491 13.0858 17.2965 13.5085 16.9165C15.982 14.6771 18.8554 13.2954 22.1458 12.8061C22.5742 12.7428 23.0084 12.6967 23.4425 12.6392C24.0823 12.6449 24.7335 12.6449 25.379 12.6449Z" fill="#2240CD"/>
<path d="M23.4143 31.8904C23.4315 31.6889 23.4258 31.4931 23.4715 31.3089C23.5914 30.8887 24.0141 30.6181 24.4369 30.6699C24.8767 30.7217 25.2023 31.0729 25.248 31.5392C25.2766 31.8731 25.2652 32.2128 25.3223 32.5409C25.7336 34.907 26.9046 36.7607 28.9783 37.9927C29.4924 38.2978 30.0579 38.4532 30.6634 38.482C31.2347 38.5108 31.6346 38.931 31.6003 39.4549C31.566 39.9845 31.1261 40.3472 30.5492 40.3184C29.2353 40.2494 28.0985 39.714 27.0932 38.9022C24.8596 37.1061 23.62 34.7688 23.4143 31.8904Z" fill="#2240CD"/>
</svg>
