<svg width="1058" height="907" viewBox="0 0 1058 907" fill="none" xmlns="http://www.w3.org/2000/svg">
<mask id="mask0" style="mask-type:alpha" maskUnits="userSpaceOnUse" x="-692" y="0" width="1942" height="907">
<path d="M1148.5 649.5L551.5 734.292L28 807L-692 907L-692 -0.000169775L1250 0L1148.5 649.5Z" fill="url(#paint0_linear)"/>
</mask>
<g mask="url(#mask0)">
<path d="M726.453 761.29C723.679 761.29 721.645 763.508 721.645 766.095C721.645 768.683 723.864 770.901 726.453 770.901C729.227 770.901 731.261 768.683 731.261 766.095C731.261 763.508 729.227 761.29 726.453 761.29Z" fill="#8992C7"/>
<path d="M230.253 467.96C227.848 474.984 227.294 476.832 225.259 484.595C224.889 486.443 225.074 486.628 225.444 486.998C228.403 486.998 232.472 486.998 235.431 486.998C235.986 487.368 235.986 487.368 233.212 500.121C232.657 503.633 232.657 503.633 240.609 503.818C242.089 503.448 242.089 503.448 249.487 495.131C250.596 494.022 250.781 494.022 252.446 493.837C255.22 493.282 257.439 489.586 258.364 487.922C263.172 479.235 259.658 479.235 255.59 479.235C254.665 478.865 254.665 478.865 256.884 468.33C257.439 465.372 257.439 465.372 240.794 465.372C240.794 465.372 240.609 465.188 240.424 465.188C240.24 463.894 244.863 451.51 250.411 440.605C251.151 439.126 251.151 438.941 251.151 438.202C248.932 438.202 246.158 438.017 243.938 438.017C245.233 436.169 247.082 433.766 248.562 432.103H248.007C246.713 433.951 244.678 436.354 243.384 438.017H242.089L239.87 440.975H241.164C237.096 446.704 233.582 451.51 228.218 459.458C226.554 462.045 224.889 464.818 225.074 466.297C226.739 466.297 228.958 466.481 230.623 466.481C230.623 467.221 230.623 467.221 230.253 467.96ZM228.588 459.643C232.472 453.728 235.801 448.738 241.349 441.159C243.384 441.159 246.158 441.159 248.192 441.159C248.377 441.529 248.377 441.529 248.007 442.453C245.233 448.553 236.171 468.145 238.575 468.699C254.85 468.699 254.85 468.699 254.48 470.363C251.891 482.377 251.891 482.377 253.555 482.562C258.179 482.562 259.289 482.562 256.699 487.368C256.145 488.292 255.035 490.14 253.555 490.51C251.891 490.51 251.151 490.51 249.117 492.728C242.644 500.306 242.644 500.306 241.904 500.306C234.691 500.306 234.691 500.306 235.061 498.458C238.39 483.856 238.39 483.856 237.096 483.671C234.136 483.671 229.513 485.15 227.109 483.486C227.109 483.116 227.109 482.932 227.109 482.377C229.143 475.169 229.513 473.505 232.102 465.927C232.657 464.448 232.472 464.263 232.472 463.709C232.472 463.709 232.287 463.524 232.102 463.524H226.739C226.739 463.154 226.554 462.785 228.588 459.643Z" fill="#8992C7"/>
<path d="M274.27 418.24C274.825 417.501 289.805 399.572 294.243 396.245C302.381 390.515 302.566 390.515 303.491 390.145C305.34 389.036 307.374 389.961 308.484 389.776C310.888 389.406 311.628 388.297 315.882 384.231C318.471 381.643 320.135 380.165 321.8 379.24C322.54 378.871 323.279 378.686 324.019 378.686C341.219 378.686 340.849 378.871 352.315 378.871C353.425 378.871 353.425 379.98 351.575 382.198C349.171 384.97 347.877 386.449 345.842 387.373C324.574 395.875 324.574 395.875 320.32 400.866C306.265 418.425 306.265 418.425 304.785 418.61C292.579 418.61 291.839 418.61 282.407 418.425C281.482 418.425 280.928 417.501 281.113 416.577C282.407 413.25 288.14 411.586 287.216 408.259C287.031 407.705 286.846 407.705 286.106 407.705H284.257L281.852 410.477C282.407 410.477 283.332 410.477 283.887 410.477C284.626 410.477 282.777 411.956 282.037 412.51C279.448 415.098 277.044 416.761 278.338 419.904C278.523 420.458 279.263 421.013 280.928 421.013C289.99 421.013 295.353 421.013 299.422 421.013C307.189 421.197 307.189 418.795 310.888 414.174C322.54 398.463 323.464 397.908 325.684 396.799C347.507 387.743 347.507 387.743 351.39 383.491C353.24 381.273 357.494 376.468 354.904 375.729H325.499C322.909 375.729 321.615 376.838 316.621 381.273C313.107 384.785 310.703 386.634 309.779 387.188C308.854 387.558 307.004 387.188 306.265 387.188C304.97 387.373 304.6 387.558 303.306 388.297C294.058 394.397 293.319 394.951 289.62 398.833C282.037 406.965 279.448 410.107 272.975 417.686L274.27 418.24Z" fill="#8992C7"/>
<path d="M326.978 414.913C326.238 415.283 325.683 415.283 325.128 415.283C316.066 415.283 315.881 415.283 311.443 421.567L308.114 426.373H309.593C314.217 419.349 314.957 417.87 317.361 417.686C320.505 417.501 322.354 417.686 324.019 417.686C326.793 417.686 327.348 416.946 329.012 415.652C347.137 400.681 347.506 400.496 348.986 400.311C354.164 399.387 371.364 400.126 376.727 400.126C381.351 400.126 382.091 399.387 383.385 398.463C389.118 393.842 391.708 391.809 393.557 390.515C395.222 389.406 396.516 389.591 397.626 389.591C422.593 389.406 430.73 389.776 434.614 389.776C436.833 389.776 437.018 390.515 437.203 392.179C438.683 415.283 439.423 414.543 442.752 415.098C452.739 415.283 452.739 415.283 452.184 418.795C447.93 436.169 447.93 436.169 444.786 436.908C439.238 436.908 438.128 436.908 435.354 440.235C412.421 471.472 412.606 472.026 410.942 472.026C405.578 472.211 397.811 472.026 394.297 471.841C387.269 471.657 386.529 472.951 384.68 475.723C370.624 496.979 365.446 504.742 363.227 507.884C361.932 509.732 361.007 510.102 359.343 510.102C340.294 509.917 339.924 509.547 339.184 508.623C330.122 490.879 330.307 490.14 330.862 487.737C333.081 481.268 334.191 479.235 336.78 479.05C341.588 478.68 342.328 479.05 344.177 477.756C348.431 474.614 351.76 464.079 345.472 464.079C333.636 464.079 328.457 464.079 325.128 463.894C321.615 463.709 321.615 463.154 321.43 460.936C320.69 447.998 322.169 440.235 322.354 437.093C322.724 434.505 322.909 432.657 323.094 431.548C323.279 429.145 321.984 428.96 320.135 428.96H314.402L312.552 431.918C319.95 431.918 320.32 431.918 320.135 433.396C318.471 445.595 317.916 456.131 318.655 463.894C318.84 466.481 320.875 467.406 323.094 467.406C335.67 467.406 340.109 467.221 343.068 467.221C344.917 467.221 345.287 467.775 345.472 468.145C346.397 469.993 345.287 474.429 342.143 475.908C339.739 477.017 337.52 476.462 335.485 477.017C332.711 477.756 331.601 479.974 329.937 483.856C327.348 490.325 327.903 490.879 328.642 493.837C337.15 513.059 337.52 513.244 340.109 513.429C348.061 513.799 353.24 513.799 356.754 513.983C363.596 514.168 363.596 513.614 365.631 510.656C385.974 477.202 387.824 475.723 390.228 475.168C392.632 474.614 402.804 474.799 406.503 474.984C413.716 475.353 414.271 473.875 416.305 471.472C437.943 440.42 437.943 440.05 440.532 440.05C447.745 439.681 449.41 440.05 451.629 433.027C453.663 425.264 455.328 420.088 455.698 416.946C456.252 413.25 454.033 412.325 451.074 412.325C442.382 412.325 442.382 412.325 441.827 410.477C440.347 400.126 440.162 394.581 439.977 391.07C439.793 387.003 437.943 387.558 437.203 387.373C396.331 387.373 396.146 387.003 393.557 388.852C382.461 397.539 382.46 397.539 381.351 397.724C350.096 397.724 350.096 397.724 347.321 399.572C327.718 414.728 327.718 414.543 326.978 414.913Z" fill="#8992C7"/>
<path d="M525.605 639.67C521.721 639.485 521.721 639.485 508.591 618.414C506.741 615.826 506.001 613.793 499.898 613.608C494.535 613.424 485.658 613.424 469.383 613.424C469.753 615.087 469.753 615.457 469.753 617.305C478.815 617.305 491.206 617.305 500.083 617.305C503.782 617.49 503.782 617.49 516.913 638.561C520.427 643.551 521.906 643.551 532.818 643.551C534.482 643.551 536.332 643.182 538.736 641.518C538.921 641.518 557.23 627.471 577.389 611.206L575.54 608.063C563.888 617.305 556.121 623.405 536.702 638.376C534.852 639.67 534.852 639.67 525.605 639.67Z" fill="#8992C7"/>
<path d="M449.595 619.153C451.259 617.674 452.554 617.12 457.177 617.12H467.349C467.164 615.456 467.164 614.902 466.794 613.238C463.28 613.238 457.917 613.238 454.218 613.238C452.184 613.423 450.519 612.869 445.341 617.859C439.978 623.034 429.436 632.091 410.942 652.053C409.092 654.271 407.058 657.044 406.873 665.361C406.873 673.494 407.243 686.986 408.353 715.081H411.866C411.497 704.546 410.387 691.607 410.387 666.285C410.387 660.925 410.572 657.783 414.826 652.977C419.634 647.617 428.141 638.93 449.595 619.153Z" fill="#8992C7"/>
<path d="M580.163 608.987C585.157 604.921 592 599.561 596.993 595.494L594.774 592.537C589.78 596.603 583.307 601.779 578.314 605.845L580.163 608.987Z" fill="#8992C7"/>
<path d="M449.04 576.642C461.061 591.798 461.061 591.798 464.205 592.168C472.343 592.168 478.816 592.353 482.699 592.353C488.433 592.353 489.727 591.059 490.282 588.471C490.467 587.362 490.837 581.078 490.837 580.339C491.022 579.045 491.207 578.675 491.762 577.936C505.077 563.334 505.077 563.334 506.742 562.964H524.866C524.866 565.922 524.866 569.988 524.866 573.13C525.051 578.121 525.421 578.49 532.449 586.438C535.778 589.765 535.778 589.765 549.463 589.765C553.532 589.765 555.936 588.286 558.526 583.666C559.82 581.448 561.855 578.305 559.45 574.424C558.156 572.206 555.751 569.803 552.607 566.107C550.573 563.519 550.758 561.486 550.758 558.528C550.943 556.126 551.313 554.092 552.792 552.614C554.087 551.32 556.121 550.95 557.971 550.95C562.964 550.765 571.841 550.765 586.822 551.32C589.226 551.505 589.226 551.505 603.467 564.073C606.056 566.661 606.056 566.661 606.796 578.86C606.796 583.111 606.796 583.111 597.363 590.874L599.583 593.831L606.056 588.471C607.35 587.177 609.94 584.775 609.755 579.045C609.755 576.457 609.385 572.945 609.2 570.358C608.645 564.628 608.645 564.628 592.555 550.396C590.89 549.102 590.151 548.363 584.602 548.178C579.424 547.993 571.841 547.993 556.676 547.993C549.463 547.993 546.874 553.168 547.059 561.116C547.429 566.107 548.169 567.031 553.717 573.13C554.827 574.609 556.306 576.272 556.306 578.121C556.306 580.523 555.197 582.187 553.162 584.59C551.868 586.068 551.498 586.253 539.292 586.253C536.333 586.068 536.333 586.068 529.675 578.675C527.64 576.087 527.64 576.087 527.64 562.964H536.148V559.268H527.64C527.64 554.462 527.64 549.656 527.64 544.666H524.311C524.311 549.472 524.311 554.277 524.311 559.268C515.619 559.268 510.626 559.268 507.482 559.268C503.598 559.268 502.858 560.192 501.563 561.486C487.138 577.381 487.138 577.381 486.953 580.708C486.768 586.623 486.583 588.656 483.254 588.656C462.726 588.471 462.726 588.656 461.431 587.547C450.15 573.5 450.15 573.5 450.15 571.652C451.074 557.235 451.074 557.235 452.184 555.941C479.925 525.443 489.172 515.277 492.871 511.951C494.721 510.287 495.09 509.733 498.05 509.733C523.756 509.733 533.004 509.917 538.552 510.102C542.806 510.287 543.545 512.135 543.73 513.799C543.915 519.713 543.36 525.258 550.388 525.628C564.444 525.998 564.444 525.628 566.108 524.704C577.02 516.756 583.123 512.875 586.267 510.102C589.966 506.96 589.781 505.481 589.781 503.263C589.226 494.022 588.486 487.922 588.301 483.856C587.931 477.387 586.267 476.647 581.458 476.647C565.368 476.647 565.369 476.647 563.519 477.941C551.313 488.477 551.313 488.477 550.943 490.325C549.279 495.87 549.279 495.87 547.614 496.24C533.374 496.24 533.373 496.24 532.264 494.576C527.64 486.259 527.085 485.15 522.832 477.572L520.243 479.235C531.154 499.382 531.154 499.382 534.853 499.752C548.909 499.752 548.909 499.752 550.018 499.197C553.902 497.349 552.238 492.543 554.642 489.955C565.923 480.344 565.923 480.159 567.033 480.159C573.691 479.79 578.13 479.79 580.719 479.974C584.602 480.159 584.787 481.268 584.972 483.671C585.897 494.022 586.452 499.382 586.637 502.339C586.822 505.481 584.972 507.33 584.048 508.069C562.779 523.595 564.074 522.301 562.779 522.486C547.429 522.486 547.429 522.486 546.874 518.789C546.689 512.69 546.689 507.884 540.401 507.145C513.955 507.145 503.228 506.96 497.495 506.96C493.426 506.96 492.501 508.254 491.577 509.178C448.67 554.462 448.67 555.571 448.115 559.083C447.191 573.685 447.191 573.685 449.04 576.642Z" fill="#8992C7"/>
<path d="M742.913 467.775L744.208 471.102C749.571 471.102 756.599 471.102 761.962 471.102C763.996 470.917 763.812 472.396 765.476 461.861C765.661 461.491 765.661 460.012 766.771 459.458C767.325 459.273 768.62 459.273 769.73 459.273C773.613 459.273 781.011 459.273 795.991 459.273L794.142 456.131C784.34 456.131 776.573 456.131 766.771 456.131C765.661 456.131 763.812 456.131 763.257 458.719C762.887 460.197 762.332 462.785 761.592 466.666C761.407 467.775 761.407 467.775 742.913 467.775Z" fill="#8992C7"/>
<path d="M696.307 496.609C698.897 496.424 700.006 496.424 708.699 472.396C709.253 470.918 709.253 470.918 742.173 471.102L740.879 467.775C731.446 467.775 718.87 467.775 709.438 467.775C708.884 467.775 707.404 467.96 706.664 469.624C703.15 476.832 700.931 484.41 697.787 491.804C697.047 493.282 697.047 493.282 681.327 493.282L682.067 496.609H696.307Z" fill="#8992C7"/>
<path d="M877.551 574.608C877.366 565.921 876.071 550.95 875.702 548.177C874.592 541.339 866.27 519.898 865.9 518.974C864.605 515.462 864.42 515.092 864.42 514.723C864.235 513.983 865.16 513.983 865.16 513.983C865.715 513.983 866.085 513.429 865.9 513.059C865.16 509.917 861.646 500.306 861.461 499.936C861.276 499.566 861.646 499.381 861.831 499.381C862.386 499.197 861.831 497.718 858.317 490.879L858.132 490.51C855.913 486.443 854.803 484.595 854.063 483.486C853.508 482.747 852.584 482.192 851.659 482.192C850.919 482.192 849.995 482.192 849.255 482.192C848.7 482.192 847.96 482.007 847.59 481.453C847.035 480.898 846.296 479.789 844.816 477.386C843.152 474.429 841.302 471.472 830.206 458.349C828.171 456.131 828.171 456.131 795.622 455.946L797.471 459.088C808.013 459.088 819.294 459.088 825.582 459.088C827.247 459.088 828.356 459.088 829.281 459.273C829.651 459.458 830.576 459.827 831.315 460.567C834.644 464.263 841.117 472.581 842.042 473.69C844.076 476.462 845.741 479.974 847.59 482.747C848.33 483.856 848.885 484.595 849.81 485.149C850.919 485.704 852.584 485.334 854.063 485.334C854.618 485.334 854.988 485.519 855.358 485.889C855.913 486.628 856.652 487.737 858.132 490.51C859.797 493.837 860.351 494.761 860.166 495.13C859.981 495.315 859.427 495.315 859.612 495.685C859.612 495.87 863.125 505.851 864.235 508.808C864.42 509.178 864.05 509.732 863.68 509.732C862.941 509.732 862.571 510.656 862.571 511.396C862.571 512.135 863.125 513.059 863.68 514.353C865.345 518.789 869.229 528.77 873.852 543.741C875.702 549.841 876.441 561.67 876.441 575.163C876.441 575.348 876.441 577.566 875.517 577.751C874.592 578.12 874.037 577.196 873.667 576.826C873.112 575.902 872.927 576.087 865.53 551.504C864.79 548.732 864.79 548.732 864.79 543.187C864.79 541.893 864.42 540.784 863.865 539.121C863.125 536.348 862.016 533.576 860.166 527.846C858.132 521.377 857.577 514.538 856.098 507.884C853.693 498.272 850.549 495.685 847.775 494.206C846.481 493.652 845.186 493.097 844.631 493.467C844.076 493.652 843.891 494.206 844.261 496.239C849.255 519.528 850.549 537.827 848.7 561.855C848.33 563.703 848.33 563.703 839.083 563.703C837.788 557.973 837.049 555.755 834.829 547.438H833.35C835.199 553.722 835.384 554.462 837.603 563.703H823.548L824.473 567.4H838.528C842.412 583.665 842.412 585.514 842.227 588.286C841.857 598.452 841.117 601.409 838.158 602.148C835.199 602.888 832.795 602.518 830.945 602.888C826.877 603.812 826.322 607.878 826.692 617.49C827.432 635.234 828.726 637.636 826.137 642.257C803.759 677.006 804.314 673.494 803.944 678.854C802.095 703.991 802.279 713.603 794.697 714.896H792.847L792.478 718.778C794.882 718.778 802.464 718.778 804.499 703.252C805.423 689.944 805.978 684.954 806.163 681.072C806.533 676.082 807.643 675.527 808.752 673.864C818.924 657.783 823.918 651.868 827.432 646.324C830.946 640.779 830.206 637.636 830.021 632.646C828.171 606.584 828.726 605.845 832.98 605.66C841.672 605.106 842.967 605.66 843.707 597.343C844.261 589.21 844.261 587.362 843.522 582.926C842.412 577.196 842.227 576.642 840.193 567.4H848.7C849.44 567.215 850.919 567.585 851.289 564.258C852.954 552.983 851.474 523.779 846.111 498.457C846.111 498.088 845.926 497.163 845.741 496.794C845.556 495.13 847.22 495.315 848.885 496.794C852.954 500.306 854.618 509.178 856.837 521.746C857.207 523.595 857.392 524.334 861.461 536.163C863.125 540.784 863.31 540.969 862.941 544.481C862.941 544.666 862.571 546.514 863.495 549.841C864.42 553.168 866.639 561.116 870.893 574.054C872.927 580.523 874.592 580.338 876.071 579.599C876.811 579.969 877.551 578.86 877.551 574.608Z" fill="#8992C7"/>
<path d="M528.564 472.396L530.414 474.984C539.291 467.406 539.846 466.851 545.024 462.23C546.319 461.306 546.319 461.306 601.802 461.306C602.911 461.491 602.911 461.491 620.111 470.178C622.515 471.842 622.7 472.766 623.255 476.647C623.625 479.974 621.96 480.898 620.481 481.083C618.816 481.268 609.754 485.334 619.741 496.609C622.145 499.197 622.145 499.197 642.119 499.197C645.078 498.827 645.078 498.827 649.887 490.51C651.181 487.737 650.996 486.813 650.071 482.192C649.517 477.756 649.887 477.756 658.949 477.756C662.463 478.126 662.463 478.126 665.792 493.097H668.381C667.641 489.77 666.716 485.519 665.977 482.192C663.572 474.614 660.613 474.429 651.921 474.429C646.188 475.169 647.297 480.898 648.037 484.78C648.222 486.998 648.222 486.998 643.783 494.206C642.674 495.5 642.674 495.5 624.365 495.5C622.515 495.315 622.515 495.315 619.371 491.804C616.597 488.107 618.077 484.78 620.851 484.41C627.139 483.671 626.029 477.572 625.474 474.245C624.18 469.254 624.18 469.254 604.021 458.903C602.541 458.164 602.541 458.164 547.244 458.164C544.839 458.534 544.839 458.534 528.564 472.396Z" fill="#8992C7"/>
<path d="M666.532 496.609C668.567 506.221 669.121 509.732 671.156 520.822H673.93C672.081 511.026 671.526 507.514 669.121 496.609H666.532Z" fill="#8992C7"/>
<path d="M782.306 674.233C781.751 701.034 779.717 725.432 776.388 746.872C774.723 757.593 774.723 757.593 775.833 760.55C779.532 769.237 779.532 769.237 781.751 769.422C785.265 769.422 787.669 769.052 789.519 769.052C792.293 768.867 793.587 768.128 795.067 762.583C795.437 760.735 795.807 759.256 795.807 757.962C795.807 755.929 795.252 754.45 795.067 753.896C789.519 740.033 789.519 740.033 789.703 738.185C790.258 734.119 790.813 728.759 791.368 724.877H789.149C787.114 742.252 787.114 742.251 788.224 744.839C790.443 750.014 793.402 755.559 793.032 759.256C792.478 763.322 791.738 765.171 788.964 765.54C781.381 766.28 781.566 766.095 780.641 764.431C777.312 756.668 777.312 756.668 777.682 754.266C782.121 726.356 784.895 695.304 785.265 678.115C785.45 671.645 785.45 669.797 784.525 667.949C783.6 666.47 782.121 665.731 779.347 665.731C758.263 664.991 757.709 664.807 755.674 668.688C749.941 680.333 743.283 691.422 737.55 703.067C736.625 705.1 736.255 707.318 736.255 708.057C736.07 711.569 735.515 718.963 741.803 719.887H746.427L746.797 716.005C740.324 716.005 738.659 716.005 738.659 710.46C738.844 706.579 738.844 706.394 739.769 704.73C746.057 693.456 751.42 681.626 757.893 670.536C758.818 669.058 759.743 668.688 760.668 668.688C768.435 668.503 774.168 668.873 777.312 668.873C782.491 668.873 782.121 670.721 782.306 674.233Z" fill="#8992C7"/>
<path d="M716.651 717.299C715.541 714.157 706.479 688.096 690.204 650.575C686.875 643.181 686.69 643.921 665.977 643.921C665.792 639.669 665.792 633.94 665.607 629.688H662.648C662.833 633.94 663.018 639.669 663.018 643.921H656.36C654.326 643.736 653.216 642.812 652.661 641.887C647.113 634.309 642.674 626.177 637.681 618.229C634.907 614.347 632.133 613.978 629.728 614.163C622.146 616.196 621.776 623.404 623.07 626.546C623.625 627.655 623.44 627.84 640.085 654.826C642.859 658.892 642.859 658.892 658.394 658.892V655.011H646.743C644.709 654.826 643.599 653.902 643.044 652.977C637.311 645.03 632.502 636.342 627.324 628.025C623.995 622.11 628.434 616.75 632.502 617.859C634.907 618.599 634.907 618.599 650.072 643.366C653.031 647.432 653.586 647.432 663.203 647.432C663.203 651.129 663.203 656.859 662.833 660.556C662.093 671.091 662.278 670.167 642.489 685.508C633.982 692.162 628.988 687.171 626.584 684.399C625.475 683.105 625.475 683.29 620.111 673.863C617.337 668.873 612.344 660.371 605.316 648.541C594.404 632.276 582.938 641.333 572.766 649.281C570.732 645.954 568.143 641.703 566.293 638.376L563.519 640.594C565.553 643.921 568.143 648.172 569.992 651.499L564.074 656.12L565.923 659.262L571.841 654.641C582.753 673.309 592.925 689.574 602.357 706.394C605.501 711.2 607.165 712.309 614.193 712.494C618.077 712.494 620.481 712.678 628.249 712.678C631.578 712.678 635.462 712.124 636.386 715.636C637.496 720.441 638.79 726.726 637.866 729.498C636.756 732.64 636.386 732.825 608.83 760.55C606.611 762.953 604.206 764.616 603.836 771.27C603.467 778.109 602.542 789.384 600.692 810.64C599.768 817.109 599.768 817.109 586.822 827.09C580.904 832.08 580.719 836.331 579.979 843.725H582.938L583.308 839.289C584.233 833.189 584.233 833.189 596.994 823.208C600.507 820.066 603.282 818.772 603.836 810.825C604.391 803.801 606.056 792.896 607.165 772.195C607.535 767.019 608.645 765.91 613.638 760.92C617.892 756.669 623.44 752.233 636.941 737.446C639.345 734.858 642.304 732.086 641.565 726.171C640.825 720.626 640.27 716.56 639.715 713.972C638.421 708.427 635.092 708.982 628.434 708.982C623.995 708.982 617.707 709.167 611.789 708.612C609.385 708.427 606.98 706.949 604.206 702.143C600.138 695.119 591.63 681.626 574.616 652.608C574.616 652.608 582.938 646.693 583.308 646.323C592.74 640.224 597.178 645.399 599.028 647.432C599.953 648.357 601.987 650.02 621.591 683.66C623.07 686.247 624.365 688.28 625.66 689.574C634.537 698.631 643.229 690.683 658.764 677.745C666.347 670.352 666.347 665.546 665.977 647.617H681.142C685.396 647.617 687.06 652.793 690.019 660.001C699.821 682.551 716.281 725.617 716.466 726.356C717.576 729.313 717.576 731.531 722.384 731.531C725.528 731.531 730.337 731.531 738.844 731.531L739.214 727.835H722.569C720.165 727.465 720.165 727.465 716.651 717.299Z" fill="#8992C7"/>
<path d="M502.303 730.053C499.344 724.508 496.385 721.366 488.432 721.366C481.589 721.735 480.295 723.584 473.082 733.38C469.568 737.631 469.568 737.631 445.526 737.631C441.827 737.446 441.827 737.446 430.36 727.465C428.326 725.802 427.031 724.323 419.634 724.138C419.634 724.138 397.071 724.138 368.405 724.138L368.59 727.835C386.529 727.835 404.284 727.835 422.223 727.835C425.737 728.02 425.737 728.02 437.203 738.001C441.272 741.143 441.272 741.143 464.945 741.328C471.417 740.958 472.712 739.11 480.11 729.313C483.069 725.802 485.658 725.062 489.357 725.062C494.165 725.432 496.385 726.911 499.899 733.38C501.563 736.337 502.858 739.294 505.817 745.579H509.516C505.077 735.783 504.892 735.043 502.303 730.053Z" fill="#8992C7"/>
<path d="M579.608 847.791C579.239 851.488 579.239 851.673 563.334 872.744C559.635 877.734 558.525 877.18 541.51 876.995C536.332 876.995 537.257 876.995 513.584 829.493C510.255 821.73 510.255 821.73 526.16 801.768C529.859 796.593 531.154 791.048 527.27 781.806C524.311 775.152 520.242 767.389 511.365 748.906H507.666C516.913 767.944 520.982 776.261 524.496 785.318C527.64 793.45 525.051 797.147 512.475 813.597C511.18 815.261 505.817 820.251 509.7 828.938C509.7 828.938 523.386 857.218 531.893 873.113C534.298 877.549 535.222 879.952 540.586 880.137C543.73 880.322 548.538 880.137 556.121 880.137C562.409 879.767 562.409 879.767 579.424 855.739C580.718 853.706 582.013 851.488 582.568 847.422V847.052H579.793L579.608 847.791Z" fill="#8992C7"/>
<path d="M846.481 798.995H841.672L840.378 802.507C847.22 802.692 847.22 802.692 846.851 807.128C843.522 834.668 840.193 841.322 838.713 844.279C834.459 852.412 826.507 867.198 821.698 873.298C809.862 888.269 806.718 890.672 804.869 890.857C796.916 891.042 796.731 891.042 799.136 885.312C801.725 879.582 803.759 874.592 800.43 874.037C792.848 874.037 787.854 874.222 784.71 874.222C779.162 874.407 779.717 871.634 780.826 867.198C783.785 856.478 784.895 849.639 787.854 837.81C788.594 834.668 791.738 827.459 796.176 823.763C800.985 819.512 810.232 812.673 819.849 804.54C828.726 796.777 828.726 796.777 830.391 796.777C832.98 796.592 836.494 796.592 839.083 796.592C839.638 796.592 839.268 797.332 838.898 798.441C835.569 808.237 834.644 810.455 831.685 818.218H832.98C842.227 794.374 841.857 794.19 840.008 793.081C829.836 793.081 829.836 793.081 827.432 795.114C816.89 804.725 805.609 812.303 794.512 822.469C787.114 829.123 785.82 838.18 785.08 840.952C782.676 851.488 779.717 861.469 777.682 872.189C776.758 876.625 779.162 877.549 781.381 877.549C799.505 877.549 798.766 877.734 799.136 877.734C800.06 877.734 800.615 878.843 798.581 883.649C795.252 891.042 793.957 893.814 796.546 893.999C804.314 894.739 805.054 894.554 811.157 887.715C822.438 874.592 824.288 871.634 826.507 868.123C832.98 857.402 841.302 842.801 843.337 835.038C851.659 799.919 848.885 799.365 846.481 798.995Z" fill="#8992C7"/>
<path d="M856.097 750.385H846.11L845.37 754.081C856.837 754.081 856.837 754.081 857.761 756.299C860.166 763.508 860.536 764.986 858.501 772.934C855.912 781.991 855.172 784.763 853.323 785.318C849.994 785.318 849.809 785.318 849.069 783.1C848.144 779.773 847.035 775.522 845.74 772.38C844.815 769.977 843.336 767.02 842.966 764.617C842.411 761.475 842.411 758.702 843.336 753.896L844.631 747.797H842.966C840.932 758.148 840.007 762.768 841.856 768.683C844.076 774.598 845.37 780.882 847.775 786.797C848.514 788.46 849.069 788.83 850.179 789.015C853.138 789.015 854.802 789.015 857.576 781.067C860.72 770.901 862.2 764.247 860.905 758.332C858.131 750.569 858.131 750.569 856.097 750.385Z" fill="#DEDEDE"/>
<path d="M854.063 615.641C852.583 612.684 850.919 612.129 848.885 612.314C847.22 612.314 845.186 613.053 844.261 614.902C843.151 617.12 843.521 619.338 843.706 627.655C843.891 642.257 844.446 646.508 842.782 649.65C826.877 678.669 824.472 677.93 822.438 678.299C820.958 678.669 819.109 678.484 817.444 679.408C814.67 681.072 812.821 683.29 811.711 693.825C810.417 704.915 810.047 710.275 809.122 718.963H811.156C815.04 682.735 815.595 682.366 820.219 681.626C823.548 681.257 826.322 681.442 828.541 678.115C837.233 664.437 842.227 656.859 844.446 651.684C846.85 646.139 846.665 645.584 846.295 639.854C845.371 621.925 845.556 617.859 845.926 616.565C846.295 614.902 848.7 613.793 850.549 614.717C851.659 615.271 852.768 617.305 854.063 621.001C858.687 635.418 858.871 636.527 859.241 640.594C860.536 664.067 859.426 667.209 857.577 671.645C851.659 682.92 844.816 694.565 840.192 700.11C838.713 701.958 837.233 703.622 835.014 703.806C828.171 704.361 825.397 704.361 821.328 704.176C813.931 703.622 814.115 705.655 813.561 711.2C812.821 718.963 812.636 720.441 811.526 729.498H813.561C816.335 707.503 816.335 707.503 818.184 707.133C838.713 707.688 838.713 707.688 841.302 704.176C862.015 672.939 862.016 668.503 862.016 660.371C862.016 639.3 860.721 634.864 859.796 632.091C856.837 623.404 855.543 618.598 854.063 615.641Z" fill="#8992C7"/>
<path d="M731.261 414.174C734.775 414.174 735.699 414.728 736.624 415.652C749.015 425.818 750.495 426.557 751.789 428.221C754.009 430.993 756.598 435.429 753.824 435.984C732.371 435.984 733.295 435.984 732.74 435.799C732.371 435.799 730.521 435.614 727.007 430.254C725.158 427.482 722.384 422.861 720.719 420.088H718.13C722.384 427.297 724.973 432.287 727.192 435.06C729.781 438.572 732.001 438.756 734.96 438.756C756.783 438.756 756.783 438.756 757.338 438.572C758.447 438.202 759.187 435.984 756.598 431.363C755.118 428.406 752.714 425.633 749.94 423.046C736.069 411.401 736.069 411.401 733.665 411.216C722.384 411.216 710.917 411.216 699.636 411.216L701.3 413.989C719.055 414.174 727.007 414.174 731.261 414.174Z" fill="#DEDEDE"/>
<path d="M510.81 455.022C532.634 455.022 532.634 455.022 536.332 452.804C555.196 440.05 555.566 439.68 555.566 430.254L555.381 427.666H552.792C553.162 432.472 553.347 436.908 548.169 441.159C532.634 451.879 532.634 451.879 528.935 452.064C523.571 452.064 516.359 452.434 510.995 452.064C499.714 451.325 496.385 436.908 505.817 428.96C513.954 422.676 513.954 422.676 517.653 422.491C529.674 422.491 545.949 422.491 557.971 422.491L557.786 419.534C513.954 419.534 513.954 419.534 510.071 422.306C508.406 423.6 506.187 425.079 504.707 426.373C494.351 434.505 494.351 453.173 510.81 455.022Z" fill="#8992C7"/>
<path d="M420.744 501.784C409.092 510.102 409.092 510.102 407.983 510.102H386.16L385.42 513.614C409.277 513.614 409.277 513.614 411.127 512.32C424.627 502.524 424.627 502.524 425.552 499.012C425.552 499.012 427.587 490.879 420.744 489.955C398.551 489.955 398.551 489.955 396.331 491.434C382.276 502.709 382.276 502.709 381.166 507.145C378.577 519.343 377.467 525.997 375.803 535.978H378.577C383.57 505.666 384.125 505.111 386.16 503.263C398.551 493.282 398.551 493.282 399.845 493.097C405.948 493.097 414.086 492.728 420.189 493.097C423.888 493.467 424.258 499.012 420.744 501.784Z" fill="#DEDEDE"/>
<path d="M373.214 554.092H375.988C376.543 550.026 377.283 544.666 378.022 540.784H375.248C374.508 544.666 373.769 550.026 373.214 554.092Z" fill="#8992C7"/>
<path d="M568.142 422.491L567.772 419.534H560.929L561.299 422.491H568.142Z" fill="#8992C7"/>
<path d="M676.149 534.685C675.594 531.727 675.039 527.661 674.484 524.704H671.71C672.265 527.661 672.82 531.727 673.374 534.685H676.149Z" fill="#8992C7"/>
<path d="M631.577 461.86C635.461 467.036 635.831 467.775 638.42 467.96H643.969L643.229 464.818C636.571 464.818 636.571 464.818 635.646 463.709C632.687 459.827 632.687 459.827 632.502 458.903C628.433 440.605 628.249 440.605 628.988 439.865C631.578 437.093 635.461 433.951 638.42 431.178C644.154 425.818 644.893 425.633 645.263 425.633C659.504 425.633 659.504 425.633 660.428 426.373C667.086 432.102 667.086 432.102 668.751 432.287C673.744 432.287 673.744 432.287 674.299 432.657C675.779 433.581 676.888 436.538 674.854 436.908C669.121 436.908 666.532 437.093 665.237 437.093C663.942 437.093 663.018 437.462 662.278 437.832C656.175 441.898 650.626 446.519 645.448 451.879C644.893 452.434 644.154 453.913 644.708 456.5L645.448 459.458H647.852C646.928 455.761 646.558 454.652 647.483 453.913C650.257 450.955 653.401 448.368 656.545 445.78C663.018 440.235 663.942 440.05 664.867 440.05C669.121 439.68 671.525 439.68 673.929 439.68C677.628 439.68 679.108 438.571 678.368 435.799C677.998 434.505 677.073 429.699 672.819 429.699C667.826 429.699 667.086 429.515 666.162 428.775C659.689 423.046 659.689 423.046 657.839 423.046C651.366 423.046 647.482 422.861 645.263 423.046C643.414 423.23 642.859 423.23 641.749 424.339C636.201 428.775 630.468 433.766 626.769 438.017C626.214 438.571 625.659 439.865 626.214 442.268C630.838 460.751 630.838 460.751 631.577 461.86Z" fill="#8992C7"/>
<path d="M828.726 885.312C821.514 893.445 813.931 900.654 807.088 908.971C793.033 925.606 782.676 935.772 769.545 947.601H769.915C786.19 932.999 795.992 922.464 807.458 908.971C808.198 908.232 820.589 894.369 828.726 886.791C829.466 886.052 830.761 886.237 830.206 887.161C829.466 887.9 820.774 898.805 819.849 899.729L800.43 919.137H798.951L796.362 921.909C798.581 922.094 798.396 922.464 804.499 916.549C816.335 904.72 819.664 901.947 821.144 900.099C824.288 896.033 829.281 890.303 831.131 887.715C831.87 886.606 832.055 886.237 832.055 885.867C831.686 884.758 829.466 884.388 828.726 885.312Z" fill="#8992C7"/>
<path d="M281.113 408.074L275.564 407.889L273.16 410.846H278.708L281.113 408.074Z" fill="#8992C7"/>
<path d="M175.51 578.675C173.476 578.675 170.887 578.675 168.483 578.675C168.113 578.675 167.743 578.305 167.743 577.751C171.812 557.234 179.949 537.827 182.908 531.173C183.093 530.988 183.093 530.803 183.278 530.618C183.463 530.433 184.018 530.433 184.388 530.433C184.573 530.433 184.757 530.433 184.757 530.803C184.942 530.988 184.942 531.173 184.757 532.097V532.282C183.463 540.045 182.908 547.068 182.168 559.267C181.983 561.67 181.613 564.073 180.689 568.139C178.839 575.533 175.695 588.101 172.921 604.366H173.846C175.14 596.788 177.36 584.035 181.613 568.139C182.723 563.888 183.278 561.67 183.463 557.234C183.833 548.547 184.573 538.381 186.237 530.064C190.491 522.486 195.299 515.092 198.998 507.144C199.738 505.481 200.478 504.002 201.217 502.524C204.546 502.708 207.875 502.708 223.04 502.708C225.26 503.448 225.26 503.448 215.828 529.694C211.389 543.741 214.533 543.741 221.746 543.741C219.157 552.613 218.787 553.537 217.122 560.007H218.602C221.006 550.95 221.191 550.026 223.225 543.741H230.993L232.103 540.045H224.335C225.445 536.533 226.924 531.912 228.219 528.585C230.438 522.855 230.808 522.301 239.5 512.505C242.09 509.917 241.165 509.917 250.597 509.917C252.816 509.917 253.741 511.396 253.556 515.462C253.186 519.713 251.522 525.628 246.158 531.542C241.535 536.902 240.98 539.49 236.541 555.94C233.027 571.281 239.685 571.466 244.124 571.281C247.083 571.097 248.562 570.172 250.227 568.324C253.741 564.073 255.405 556.125 257.07 549.656C260.584 538.381 263.358 538.381 273.53 538.381C273.9 538.381 275.009 538.381 275.934 539.49C280.373 544.296 284.441 549.471 288.325 554.646C289.989 556.864 290.174 559.452 289.805 562.225C289.065 567.954 287.77 574.424 287.585 574.608H290.359L292.209 564.627C292.949 560.007 293.503 556.125 290.914 552.613C286.661 547.068 282.222 542.078 277.968 536.718C276.304 534.869 275.379 534.315 265.947 535.424C257.07 536.348 255.405 547.808 253.186 556.31C249.857 567.77 246.158 567.77 240.795 567.77C234.692 567.215 237.281 558.158 241.535 543.002C243.384 537.457 244.864 535.793 248.008 532.282C255.035 524.149 256.33 514.168 255.96 510.656C255.405 506.405 255.405 506.405 244.864 506.405C242.09 506.59 241.165 507.699 232.657 517.68C228.219 523.04 227.294 526.367 222.671 540.229H217.307C212.869 538.936 216.937 529.14 223.41 513.059C227.664 501.784 225.815 500.121 225.26 499.936C224.89 499.751 224.89 499.751 202.512 499.566C205.101 494.021 206.211 490.879 205.841 489.216C205.656 489.031 205.471 489.031 204.916 489.216C204.361 489.216 204.731 488.107 205.471 486.258C208.06 480.344 211.944 474.984 213.978 468.699H213.239C213.239 468.699 210.464 473.875 210.095 474.614C207.32 479.789 203.437 487.367 201.032 493.652C199.738 496.424 199.368 497.903 198.443 500.306C198.073 501.23 198.073 501.599 197.888 501.969C197.888 502.524 198.073 502.893 198.628 502.893C199.183 502.893 199.738 502.893 200.293 502.893C196.224 511.58 191.785 519.343 189.751 522.301C188.271 524.519 187.162 526.367 186.237 527.846C186.237 527.661 186.052 527.661 185.867 527.661H184.757C184.388 527.661 184.203 527.846 184.018 528.031C183.463 528.955 182.168 531.542 180.689 535.424C176.805 544.481 169.962 562.409 166.633 580.893C166.633 580.893 166.263 582.186 166.633 582.741C166.633 582.741 172.366 582.741 174.771 582.741L175.51 578.675ZM199.738 499.197C199.553 498.642 200.478 495.685 202.327 491.249C205.286 484.225 209.725 476.093 211.944 471.657C211.574 472.581 211.574 472.581 210.649 474.429C207.505 480.344 202.512 490.509 202.882 492.173C203.067 492.543 203.437 492.173 203.991 492.358C204.361 492.543 204.361 493.836 201.772 499.197C201.217 499.381 200.478 499.381 199.738 499.197Z" fill="#8992C7"/>
<path d="M357.493 940.023C358.048 940.208 360.453 940.762 360.453 940.762C356.754 935.772 350.096 926.161 345.842 919.322C345.102 918.213 343.808 915.625 343.808 913.038C343.438 903.241 346.952 879.583 359.713 848.901C360.453 846.867 361.007 844.465 359.898 839.659C353.24 812.673 353.24 812.673 350.466 798.811C350.096 797.147 349.911 796.778 349.356 795.114C348.801 796.038 348.246 797.332 347.691 798.256C349.911 809.346 352.5 821.73 357.308 839.659C358.233 843.91 358.233 843.91 354.719 852.597C348.986 866.46 341.403 891.042 340.849 912.483C340.849 914.331 341.403 915.625 343.623 919.692C345.657 923.573 349.726 929.118 357.493 940.023Z" fill="#8992C7"/>
<path d="M346.027 794.005L347.507 791.417C347.137 790.863 346.582 789.939 345.472 788.83C333.821 775.707 325.868 766.65 311.813 749.275H308.299C315.881 758.702 326.238 771.455 344.178 791.417C344.917 792.157 345.472 792.896 346.027 794.005Z" fill="#8992C7"/>
<path d="M361.747 942.795C361.562 942.425 359.528 942.61 359.343 942.241C361.192 944.643 363.781 947.97 365.631 950.188C367.85 953.331 368.59 954.44 368.775 956.103C368.96 957.582 367.665 957.397 367.295 957.212C365.261 956.658 361.007 954.255 335.67 932.075C334.191 930.781 331.417 928.008 331.047 927.639C329.382 926.16 303.86 897.141 279.448 832.82C278.338 829.862 278.153 828.384 273.715 823.393C270.201 819.512 262.803 811.749 252.631 801.028C245.234 793.265 235.986 742.621 232.842 711.754C231.548 702.328 231.178 697.707 223.78 697.152C219.342 696.783 212.684 696.968 202.142 696.968L202.512 700.849C208.615 700.849 216.568 700.849 223.041 700.849C224.335 700.849 225.815 701.219 226.924 701.958C230.253 704.546 230.068 708.982 231.178 718.963C232.842 735.413 236.911 765.725 246.343 794.929C248.008 799.919 249.487 802.322 254.851 807.498C258.364 811.009 263.728 816.739 272.605 825.242C276.119 828.938 276.119 829.308 280.188 839.658C287.955 859.99 301.641 892.521 326.793 925.975C332.341 933.553 354.534 950.373 361.192 955.733C366.926 959.985 368.96 959.8 369.7 959.43C370.994 958.876 372.659 956.842 367.85 950.373C365.816 947.97 363.782 945.198 361.747 942.795Z" fill="#8992C7"/>
<path d="M194.374 696.968C192.71 696.783 177.36 676.266 171.441 661.48C170.332 658.892 169.962 657.783 169.592 654.087C168.297 645.03 173.291 608.618 173.291 608.248H172.551C171.256 616.935 169.037 629.689 168.297 647.248C167.928 657.229 168.112 665.361 192.895 699.001C194.189 700.664 194.189 700.664 201.032 700.664L200.662 696.783L194.374 696.968Z" fill="#8992C7"/>
<path d="M234.506 675.897C238.76 676.081 238.945 677.006 241.719 704.731C243.014 717.299 246.898 718.038 248.747 718.778C250.042 719.332 252.816 719.517 255.775 719.517C259.474 719.517 262.248 719.147 280.372 719.332C281.667 719.332 285.366 719.332 287.955 722.844C290.544 726.356 295.352 732.455 305.524 745.394H309.038C301.64 735.967 298.127 731.531 289.804 720.072C287.77 717.484 286.66 715.82 279.262 716.005C273.899 716.19 260.398 716.745 252.261 716.005C245.418 715.451 245.048 707.503 243.014 687.171C241.719 674.788 240.61 672.939 235.616 672.57C233.582 672.385 230.623 672.57 227.664 672.015C221.561 670.906 222.115 662.404 222.855 645.584H221.006H222.855C229.883 645.584 239.13 645.584 246.158 645.584C248.747 645.399 248.747 645.399 261.138 631.167C265.022 626.177 265.022 625.807 267.241 607.139C268.351 599.746 268.351 599.746 283.886 586.992C284.811 586.068 287.03 584.404 289.064 579.784L289.619 578.49C288.879 578.49 287.585 578.49 286.845 578.49C285.92 580.523 285.55 582.002 282.406 584.959C280.372 586.807 276.673 589.395 271.495 593.646C265.947 599.006 265.392 603.442 264.097 618.229C263.357 624.143 263.357 624.143 250.411 639.485C248.377 641.703 248.377 641.703 223.225 641.703C223.41 637.821 223.78 632.646 224.15 628.764H222.3C221.93 632.646 221.561 637.821 221.376 641.703C215.457 641.703 207.505 641.703 201.587 641.703L201.402 645.584C207.32 645.584 215.273 645.584 221.191 645.584C220.821 655.565 220.821 655.565 220.821 660.74C220.636 675.712 224.705 675.342 234.506 675.897Z" fill="#8992C7"/>
<path d="M666.531 496.609H669.12H678.553L677.628 493.097H668.381H665.791H661.723L662.462 496.609H666.531Z" fill="#ABB2D9"/>
<path d="M680.587 411.586L682.066 414.358H698.711L697.047 411.586H680.587Z" fill="#ABB2D9"/>
<path d="M827.246 528.585C828.355 532.097 830.02 536.718 831.129 540.229H832.609C831.499 536.718 830.02 532.097 828.725 528.585H827.246Z" fill="#ABB2D9"/>
<path d="M807.457 755.19H809.491C811.156 745.949 811.526 743.915 812.82 735.413H810.786C809.306 744.47 808.937 746.503 807.457 755.19Z" fill="#ABB2D9"/>
<path d="M821.697 841.877H822.992C826.506 834.299 827.246 832.635 830.574 824.872H829.28C825.951 832.635 825.211 834.299 821.697 841.877Z" fill="#ABB2D9"/>
<path d="M848.33 723.029H846.665C845.37 731.901 845.186 733.75 843.706 742.437H845.371C846.85 733.565 847.035 731.716 848.33 723.029Z" fill="#ABB2D9"/>
<path d="M746.611 727.835L746.241 731.532H759.187L759.557 727.835H746.611Z" fill="#ABB2D9"/>
<path d="M579.978 844.095H573.69L573.505 847.422H579.608H582.567H605.13L605.5 844.095H582.752H579.978Z" fill="#ABB2D9"/>
<path d="M670.415 596.603C668.936 597.528 661.538 602.703 661.908 616.196C662.833 616.196 663.942 616.196 664.867 616.196C664.682 605.845 669.86 598.821 677.813 598.267H697.787L697.417 594.57C673.929 594.57 673.929 594.57 670.415 596.603Z" fill="#ABB2D9"/>
<path d="M501.933 479.05H513.769L513.954 475.723H502.118L501.933 479.05Z" fill="#ABB2D9"/>
<path d="M665.051 464.633H649.331L650.071 467.775H665.976L665.051 464.633Z" fill="#ABB2D9"/>
<path d="M811.156 631.352C809.676 611.945 808.567 595.31 796.915 594.201C785.079 594.201 769.359 594.201 757.522 594.201L757.892 597.897C798.21 597.897 798.21 597.897 799.134 598.267C799.319 598.267 805.053 599.376 806.717 612.869C807.642 620.817 807.827 622.48 808.567 631.352H811.156Z" fill="#ABB2D9"/>
<path d="M363.967 726.171C363.967 723.399 361.747 721.366 359.158 721.366C356.569 721.366 354.35 723.584 354.35 726.171C354.35 728.759 356.569 730.977 359.158 730.977C361.747 730.977 363.967 728.944 363.967 726.171Z" fill="#ABB2D9"/>
<path d="M676.148 549.841C678.804 549.841 680.957 547.689 680.957 545.035C680.957 542.381 678.804 540.229 676.148 540.229C673.493 540.229 671.34 542.381 671.34 545.035C671.34 547.689 673.493 549.841 676.148 549.841Z" fill="#ABB2D9"/>
<path d="M162.379 604.736H162.564C163.119 601.779 163.858 597.713 164.413 594.755H164.228C163.674 597.713 162.934 601.779 162.379 604.736Z" fill="#ABB2D9"/>
<path d="M272.604 503.633C271.125 507.514 267.426 517.865 274.084 519.159C282.961 519.159 282.961 519.159 283.701 522.116C285.92 531.358 286.29 531.912 286.66 532.467C288.325 536.533 295.352 538.751 299.051 529.509C299.791 527.661 300.716 524.704 301.64 522.116C308.668 499.566 308.853 499.012 307.559 494.761C303.49 483.116 303.49 483.116 301.086 482.931C292.948 482.931 292.948 482.931 292.763 480.344C292.023 473.135 291.838 467.96 291.653 465.372C291.284 461.491 290.544 461.676 289.434 461.676H280.742L279.077 464.818C289.619 464.818 289.064 464.263 289.249 467.59C289.989 485.704 290.359 485.889 293.688 486.258C301.64 486.258 301.64 486.258 302.38 488.292C305.709 498.088 305.709 498.088 304.599 501.969C297.757 523.595 297.387 525.443 297.387 525.443C295.167 533.021 289.989 535.239 288.14 528.215C285.181 515.647 284.811 515.832 281.852 515.462C272.604 515.462 270.57 515.462 273.344 506.405C274.824 502.154 278.708 491.064 272.789 491.249C266.686 491.434 264.282 491.249 267.796 482.562C276.118 464.633 282.591 453.358 287.4 445.226H285.92C272.604 467.59 266.871 479.974 264.837 486.443C262.433 494.021 265.577 494.206 267.056 494.576C273.159 494.761 275.379 494.761 272.604 503.633Z" fill="#ABB2D9"/>
<path d="M298.682 613.793C313.107 594.385 313.107 594.385 313.847 590.134C314.032 589.58 316.436 576.272 306.819 574.793H289.989H287.77H270.755L270.016 578.49H286.475H288.88C307.744 578.49 307.744 578.49 308.669 579.229C313.107 583.11 312.182 590.873 308.669 595.864C304.6 601.039 301.086 606.769 296.647 611.575C294.613 613.793 293.133 613.793 292.209 613.977H275.009L274.639 617.859C295.353 617.859 295.353 617.859 298.682 613.793Z" fill="#ABB2D9"/>
<path d="M343.068 806.944C344.547 804.356 346.212 800.659 347.506 798.072L349.171 794.929C354.534 784.949 356.753 781.252 355.644 772.934C355.089 769.238 353.794 760.735 346.027 750.57C343.253 746.873 339.924 745.579 333.82 745.579C326.238 745.579 316.251 745.579 308.853 745.579H305.339H283.701V749.276H308.298H311.812C339.369 749.276 339.184 747.982 342.698 752.048C351.575 761.66 355.089 776.631 350.465 785.873L347.506 791.418L346.027 794.005C337.704 810.086 337.704 810.086 332.156 810.455H312.182L313.107 813.967C339.184 813.967 338.814 814.707 343.068 806.944Z" fill="#ABB2D9"/>
<path d="M337.704 921.909C329.197 909.525 325.498 902.686 318.285 889.009H316.066C321.429 898.805 329.752 913.961 338.074 925.791C346.396 937.62 355.089 943.165 363.966 943.35H366.74L364.891 940.762C361.562 940.762 351.575 942.056 337.704 921.909Z" fill="#ABB2D9"/>
<path d="M194.375 608.433H205.656L206.211 604.736L194.929 604.551L194.375 608.433Z" fill="#ABB2D9"/>
<path d="M235.801 441.159H238.575L240.979 438.202H238.02L235.801 441.159Z" fill="#ABB2D9"/>
<path d="M201.957 696.968C199.552 664.068 199.552 662.219 194.004 661.85H190.305V665.731C195.299 665.731 197.888 663.698 198.997 677.93C199.552 685.139 199.922 687.357 200.477 696.968L200.847 700.849C201.402 707.318 201.402 708.058 202.511 717.484H203.991C203.251 711.015 203.251 710.276 202.326 700.849L201.957 696.968Z" fill="#ABB2D9"/>
<path d="M303.675 428.775H297.942L295.907 431.733H301.64L303.675 428.775Z" fill="#ABB2D9"/>
<path d="M354.35 467.59H366.371L367.48 464.448H355.459L354.35 467.59Z" fill="#ABB2D9"/>
<path d="M371.363 467.59H378.021L378.946 464.448H372.288L371.363 467.59Z" fill="#ABB2D9"/>
<path d="M368.035 601.594H370.809C372.288 582.741 373.398 573.869 375.247 559.452H372.473C370.069 577.935 369.329 586.807 368.035 601.594Z" fill="#ABB2D9"/>
<path d="M409.277 734.489C409.462 738.185 409.832 743.176 410.017 747.058H412.976C412.791 743.361 412.421 738.37 412.236 734.489H409.277Z" fill="#ABB2D9"/>
<path d="M528.009 530.803H524.865C524.865 533.945 524.865 538.197 524.865 541.524H528.194C528.009 538.197 528.009 533.945 528.009 530.803Z" fill="#ABB2D9"/>
<path d="M687.615 762.583C684.286 755.19 684.286 755.19 684.286 753.712C685.766 740.034 685.766 740.034 688.91 739.479C691.684 739.479 693.903 739.479 693.903 743.915C693.534 747.982 692.979 753.527 692.424 757.593H695.198C696.862 742.806 696.863 742.806 696.493 740.773C696.123 738.74 695.013 736.337 691.314 735.783C688.355 735.783 683.732 735.783 682.437 743.915C681.327 756.299 681.327 756.299 682.252 758.517C686.506 767.759 686.506 767.759 689.65 767.944H698.712L699.267 764.247C688.355 764.432 688.355 764.432 687.615 762.583Z" fill="#ABB2D9"/>
<path d="M889.017 738.37C886.982 738.37 886.982 738.37 886.243 739.849C879.4 754.635 879.4 754.635 878.845 756.853C877.18 763.323 876.995 764.247 874.406 773.304H875.146C876.995 766.834 877.18 765.91 879.585 756.853C879.955 755.375 880.139 754.635 880.509 754.081C882.174 750.754 884.393 746.318 885.873 742.991C886.058 742.436 886.242 742.436 886.427 742.252C886.982 742.252 887.537 742.252 888.092 742.252C888.277 742.991 888.092 744.47 887.907 745.763C887.352 748.536 887.167 749.275 886.612 750.569C882.544 758.887 882.544 758.887 881.619 762.583C880.879 765.356 880.324 765.91 879.954 766.095H878.475L877.55 769.792C879.4 769.792 879.4 769.792 880.139 768.498C881.804 765.725 881.989 762.398 883.283 759.626C887.167 751.493 887.167 751.493 888.092 747.427C889.941 740.588 889.571 738.74 889.017 738.37Z" fill="#ABB2D9"/>
<path d="M744.207 471.102L742.913 467.775C741.618 464.818 739.769 460.752 738.474 457.794H736.44C737.734 460.752 739.584 464.818 740.878 467.775L742.173 471.102C754.934 502.709 770.839 541.893 745.872 543.742H730.521L731.261 547.438C752.899 547.438 752.899 547.438 756.228 543.557C763.811 534.5 761.777 522.301 759.557 513.984C753.824 495.685 749.94 485.15 744.207 471.102Z" fill="#ABB2D9"/>
<path d="M824.472 500.121C822.437 501.415 822.438 505.666 822.438 507.145C822.438 509.363 822.438 512.505 822.438 514.723L824.472 517.126C824.657 506.775 824.657 506.775 824.842 505.666C825.397 503.448 827.061 503.263 827.616 503.078H835.568L834.089 499.566C825.212 499.566 825.212 499.566 824.472 500.121Z" fill="#ABB2D9"/>
<path d="M835.568 499.566L837.048 503.078H840.192L838.712 499.566H835.568Z" fill="#ABB2D9"/>
<path d="M601.987 596.604L599.582 593.462L597.363 590.504C590.89 582.002 590.705 581.817 587.006 581.632C572.581 581.632 569.622 581.632 569.067 590.874C569.252 596.049 569.252 596.789 570.546 599.376C572.026 601.964 574.245 605.476 575.725 608.248L577.574 611.39C579.054 613.978 581.088 617.305 582.568 619.708L585.342 617.675C583.862 615.087 581.828 611.76 580.348 609.357L578.499 606.215C572.581 596.234 572.581 596.234 572.396 594.386C572.211 589.95 572.211 586.068 577.019 585.514C589.226 585.514 589.226 585.514 590.89 587.547L594.959 592.907L597.178 595.864C601.617 601.779 603.836 604.552 610.309 605.106H627.139L626.954 601.409C605.5 600.855 605.5 600.855 601.987 596.604Z" fill="#ABB2D9"/>
<path d="M550.572 784.763C543.359 769.607 538.551 760.365 535.962 754.451C532.078 745.209 528.934 745.579 524.125 745.579H509.7H506.001H501.377V749.275H507.665H511.364C528.934 749.275 528.934 749.275 531.153 753.342C536.886 764.616 541.14 773.488 544.099 779.588C545.394 782.36 546.873 786.242 548.723 788.83C553.346 795.299 557.97 796.223 562.038 796.592H568.326L568.511 793.081C559.079 792.896 555.011 792.896 550.572 784.763Z" fill="#ABB2D9"/>
<path d="M491.206 745.579V749.276H498.789V745.579H491.206Z" fill="#ABB2D9"/>
<path d="M191.415 604.551C186.052 604.551 179.024 604.551 173.845 604.551H173.106H167.742L167.188 608.248H172.551H173.291C178.654 608.248 185.682 608.248 190.86 608.248L191.415 604.551Z" fill="white"/>
<path d="M305.524 428.775L303.675 431.733H310.518L312.367 428.775H305.524Z" fill="white"/>
<path d="M806.163 761.29C805.608 763.692 805.053 766.65 804.498 769.053H806.532C807.087 766.65 807.642 763.692 808.197 761.29H806.163Z" fill="white"/>
<path d="M641.01 789.199C638.605 789.384 637.126 789.939 634.906 791.787C628.064 798.441 625.105 801.029 617.522 808.237L619.186 811.009C624.92 805.465 630.653 799.919 636.571 794.559C640.27 791.232 645.818 792.526 645.448 800.104C642.489 823.578 642.489 823.578 640.27 826.166C623.995 843.91 623.995 843.91 621.406 844.095H608.46L608.09 847.421C624.18 847.421 624.18 847.422 627.324 844.279C644.524 825.796 644.523 825.796 645.448 821.36C649.332 798.256 650.627 790.493 641.01 789.199Z" fill="white"/>
<path d="M745.687 594.57C733.111 594.57 716.466 594.57 703.89 594.57L704.259 598.267C716.836 598.267 733.665 598.267 746.241 598.267L745.687 594.57Z" fill="white"/>
<path d="M591.814 422.491H575.724L575.354 419.534H591.26L591.814 422.491Z" fill="white"/>
<path d="M797.471 459.458L795.621 456.315C783.045 435.06 772.318 421.382 765.845 413.064H764.551C777.867 429.884 785.079 441.159 794.142 456.315L795.991 459.458C800.06 466.666 803.389 472.95 805.793 477.756H807.272C803.574 470.178 800.06 463.893 797.471 459.458Z" fill="white"/>
<path d="M304.415 859.806H302.565C306.079 867.938 308.484 873.114 311.443 878.843H313.292C309.223 871.08 307.004 865.905 304.415 859.806Z" fill="white"/>
<path d="M269.461 423.046C263.543 430.809 262.248 432.472 257.439 439.126H258.364C264.097 431.179 265.392 429.515 270.385 423.046H269.461Z" fill="white"/>
<path d="M715.726 768.128H704.445L705 764.432H716.281L715.726 768.128Z" fill="white"/>
<path d="M820.773 564.073H811.896L812.635 567.77H821.513L820.773 564.073Z" fill="white"/>
<path d="M584.602 794.929C584.602 792.157 582.383 790.124 579.794 790.124C577.02 790.124 574.985 792.342 574.985 794.929C574.985 797.702 577.205 799.735 579.794 799.735C582.383 799.735 584.602 797.517 584.602 794.929Z" fill="white"/>
<path d="M608.829 420.458C608.829 417.131 606.24 414.543 602.911 414.543C599.582 414.543 596.993 417.131 596.993 420.458C596.993 423.785 599.582 426.373 602.911 426.373C606.055 426.373 608.829 423.6 608.829 420.458Z" fill="#ABB2D9"/>
<path d="M526.715 1110.44C514.139 1110.44 501.378 1109.88 488.801 1108.78C369.699 1098.79 261.693 1043.16 184.387 952.037C108.006 861.654 70.8323 747.057 79.8945 629.134C88.9567 511.211 142.96 403.638 232.102 326.193L234.506 328.966C146.104 405.671 92.4706 512.505 83.4084 629.319C74.3462 746.318 111.335 860.175 187.161 949.634C263.727 1040.02 370.993 1095.28 489.171 1105.26C607.349 1115.06 722.198 1078.46 812.635 1001.94C902.332 926.16 957.445 820.066 967.987 703.252C978.528 586.438 943.389 472.396 868.858 381.828L871.632 379.61C946.718 470.917 982.042 585.883 971.5 703.622C960.959 821.36 905.291 928.378 814.854 1004.9C733.48 1073.47 632.317 1110.44 526.715 1110.44Z" fill="#8992C7"/>
<path d="M875.701 376.653C873.296 373.695 869.043 373.326 866.084 375.544C863.125 377.946 862.755 382.198 864.974 385.155C867.378 388.112 871.632 388.482 874.591 386.264C877.55 383.861 878.105 379.61 875.701 376.653Z" fill="#8992C7"/>
<path d="M669.86 1144.26L668.195 1138.9C791.737 1102.12 894.749 1019.87 958.369 907.678C1021.99 795.485 1039.37 664.808 1007.38 540.046L1012.74 538.567C1045.11 664.808 1027.54 796.779 963.178 910.451C899.003 1023.94 794.696 1106.93 669.86 1144.26Z" fill="#8992C7"/>
<path d="M1020.33 537.273C1018.85 531.543 1013.11 528.216 1007.56 529.51C1001.83 530.988 998.503 536.718 999.797 542.263C1001.28 547.993 1007.01 551.32 1012.56 550.026C1018.29 548.547 1021.81 542.818 1020.33 537.273Z" fill="#8992C7"/>
<path d="M525.79 1165.33C452.738 1165.33 380.241 1149.25 313.292 1118.02C230.068 1079.2 159.235 1018.39 108.376 942.61C95.6148 923.572 83.9634 903.241 73.9766 882.54L78.97 880.137C88.9569 900.653 100.423 920.615 112.999 939.468C163.304 1014.51 233.397 1074.58 315.696 1113.03C398.735 1151.84 490.651 1167 581.458 1156.65L582.013 1162.19C563.333 1164.22 544.469 1165.33 525.79 1165.33Z" fill="#DEDEDE"/>
<path d="M67.1338 886.421C64.5447 881.246 66.764 874.777 72.1273 872.374C77.3057 869.786 83.7786 872.004 86.1829 877.364C88.7721 882.54 86.5528 889.009 81.1895 891.412C75.8261 893.815 69.723 891.596 67.1338 886.421Z" fill="#DEDEDE"/>
<path d="M39.0228 787.166C6.65788 660.926 24.2274 528.955 88.5872 415.283C152.947 301.98 257.07 218.806 382.09 181.654L383.755 187.014C260.029 223.796 157.016 305.862 93.3957 418.24C29.7756 530.434 12.3911 660.926 44.3861 785.873L39.0228 787.166Z" fill="#8992C7"/>
<path d="M379.317 174.446C384.865 172.783 390.783 175.925 392.447 181.47C394.112 187.015 390.968 192.929 385.42 194.593C379.871 196.256 373.953 193.114 372.289 187.569C370.624 182.024 373.768 176.11 379.317 174.446Z" fill="#8992C7"/>
<path d="M699.451 1056.84L697.971 1053.51C746.426 1032.25 790.072 1002.31 827.616 964.605C866.823 925.421 897.524 879.767 918.977 829.123C941.17 776.63 952.451 720.811 952.451 663.143C952.451 607.693 942.095 553.907 921.381 503.078L924.71 501.784C945.424 552.983 955.965 607.324 955.965 663.143C955.965 721.181 944.684 777.555 922.121 830.417C900.483 881.616 869.413 927.639 829.835 967.008C792.107 1005.27 748.275 1035.4 699.451 1056.84Z" fill="#ABB2D9"/>
<path d="M916.943 505.296C915.648 501.784 917.312 497.903 920.826 496.424C924.34 495.13 928.224 496.794 929.704 500.306C930.998 503.818 929.334 507.699 925.82 509.178C922.121 510.656 918.237 508.808 916.943 505.296Z" fill="#ABB2D9"/>
<path d="M519.502 1093.06C463.65 1092.33 409.647 1080.87 358.603 1059.24C307.374 1037.61 261.323 1006.56 221.93 967.009C182.353 927.454 151.467 881.616 129.644 830.417C107.266 777.37 95.7998 721.181 95.7998 663.144C95.7998 605.106 107.081 548.732 129.644 495.87C151.282 444.671 182.353 398.648 221.93 359.279C261.508 319.724 307.374 288.857 358.603 267.047C411.681 244.682 467.903 233.223 525.975 233.223C584.047 233.223 640.454 244.497 693.348 267.047C718.315 277.583 742.357 290.521 764.735 305.492L762.701 308.45C740.508 293.663 716.651 280.91 692.053 270.374C639.53 248.194 583.677 236.919 525.975 236.919C468.458 236.919 412.421 248.194 359.897 270.374C309.038 291.815 263.542 322.682 224.335 361.681C185.127 400.866 154.426 446.52 132.973 497.164C110.78 549.656 99.4986 605.476 99.4986 663.144C99.4986 720.627 110.78 776.631 132.973 829.123C154.426 879.952 185.312 925.421 224.335 964.606C263.542 1003.79 309.223 1034.47 359.897 1055.91C410.571 1077.35 464.204 1088.63 519.502 1089.37V1093.06Z" fill="#ABB2D9"/>
<path d="M759.557 312.516C762.701 314.549 766.955 313.625 768.989 310.483C771.024 307.34 770.099 303.089 766.955 301.056C763.811 299.023 759.557 299.947 757.523 303.089C755.673 306.231 756.413 310.483 759.557 312.516Z" fill="#ABB2D9"/>
<path d="M489.542 1188.62L489.912 1184.19C554.642 1188.81 619.001 1181.41 681.327 1162.19C746.242 1142.23 805.608 1110.44 858.132 1067.74C912.32 1023.57 956.521 969.596 989.625 907.123C1021.44 847.237 1040.85 782.915 1047.7 716.006L1052.14 716.376C1045.29 783.839 1025.5 848.531 993.509 909.156C960.22 971.999 915.649 1026.52 860.906 1071.07C808.012 1114.14 748.091 1146.11 682.622 1166.26C619.556 1185.85 554.642 1193.24 489.542 1188.62Z" fill="#ABB2D9"/>
<path d="M1041.22 716.006C1041.78 711.385 1045.85 708.058 1050.47 708.613C1055.09 709.167 1058.42 713.233 1057.87 717.854C1057.31 722.475 1053.24 725.802 1048.62 725.248C1044 724.693 1040.67 720.442 1041.22 716.006Z" fill="#ABB2D9"/>
<path d="M273.714 1125.04C213.793 1092.14 161.639 1048.89 118.732 996.397C75.6408 943.535 43.6458 883.649 23.4872 818.218C3.32847 752.602 -3.88427 685.138 2.03387 617.305C8.13696 547.068 28.1107 479.604 61.4003 416.761C94.6899 353.918 139.261 299.392 194.004 254.848C246.897 211.782 306.818 179.806 372.288 159.659C437.572 139.327 505.261 132.119 573.135 138.033C643.413 144.133 710.917 164.095 773.797 197.365C836.678 230.635 891.235 275.179 935.807 329.89C956.705 355.582 975.384 383.307 991.104 412.325L987.22 414.358C971.685 385.709 953.191 358.169 932.478 332.662C888.276 278.322 834.088 234.147 771.763 201.246C709.437 168.161 642.488 148.384 572.765 142.469C505.446 136.555 438.312 143.763 373.398 163.725C308.483 183.687 249.117 215.478 196.593 258.175C142.405 302.35 98.2038 356.321 65.2841 418.61C32.1794 481.083 12.3906 547.993 6.47248 617.674C0.554335 684.954 7.76708 751.863 27.7408 816.739C47.7146 881.616 79.5246 940.947 122.246 993.439C164.783 1045.56 216.567 1088.44 275.933 1121.16L273.714 1125.04Z" fill="#ABB2D9"/>
<path d="M981.487 416.946C983.707 421.013 988.885 422.491 992.769 420.273C996.838 418.055 998.317 413.065 996.098 408.998C993.879 404.932 988.7 403.453 984.816 405.671C980.748 407.889 979.268 412.88 981.487 416.946Z" fill="#ABB2D9"/>
<path d="M810.786 369.26C774.168 333.772 732.001 305.862 685.211 286.085C636.756 265.569 585.342 254.848 532.264 253.924V250.228C585.712 250.967 637.681 261.872 686.505 282.573C733.666 302.535 776.387 330.815 813.191 366.487L810.786 369.26Z" fill="#DEDEDE"/>
<path d="M807.087 372.771C809.861 375.359 814.115 375.174 816.704 372.587C819.293 369.814 819.108 365.563 816.519 362.975C813.745 360.388 809.491 360.572 806.902 363.16C804.313 365.933 804.313 370.184 807.087 372.771Z" fill="#DEDEDE"/>
<path d="M525.975 1076.06C470.123 1076.06 416.119 1065.15 365.26 1043.71C316.066 1023.01 271.865 993.07 233.952 955.18C196.038 917.289 166.263 873.114 145.364 823.948C123.726 772.934 112.814 718.963 112.814 663.144C112.814 607.324 123.726 553.353 145.179 502.524C165.893 453.359 195.853 409.184 233.767 371.293C270.2 334.881 312.367 306.047 359.157 285.346L360.637 288.673C314.216 309.189 272.419 337.838 236.356 373.881C198.813 411.402 169.222 455.207 148.508 504.003C127.24 554.277 116.513 607.879 116.513 663.144C116.513 718.409 127.425 772.01 148.693 822.47C169.407 871.265 198.813 914.886 236.541 952.592C274.084 990.113 317.915 1019.69 366.74 1040.39C417.229 1061.64 470.862 1072.55 526.16 1072.55C581.458 1072.55 635.091 1061.64 685.58 1040.39C732.37 1020.61 774.537 992.701 811.156 957.213L813.745 959.8C776.942 995.473 734.22 1023.75 687.06 1043.71C635.831 1065.15 581.643 1076.06 525.975 1076.06Z" fill="#DEDEDE"/>
<path d="M908.991 817.848L905.662 816.554C924.526 769.792 934.513 720.441 935.252 669.612H938.951C938.212 720.996 928.04 770.716 908.991 817.848Z" fill="#DEDEDE"/>
<path d="M930.259 669.797C930.259 666.101 933.403 663.144 937.287 663.144C940.986 663.144 943.945 666.286 943.945 670.167C943.945 673.864 940.801 676.821 936.917 676.821C933.033 676.636 930.074 673.679 930.259 669.797Z" fill="#DEDEDE"/>
<path d="M901.038 814.336C899.743 817.848 901.408 821.73 904.922 823.208C908.435 824.502 912.319 822.839 913.799 819.327C915.093 815.815 913.429 811.934 909.915 810.455C906.401 809.161 902.332 810.825 901.038 814.336Z" fill="#DEDEDE"/>
<path d="M672.634 299.578C626.029 280.725 576.649 271.298 525.975 271.298C475.116 271.298 425.922 280.91 379.316 299.578L378.021 296.251C424.997 277.213 474.931 267.602 526.16 267.602C577.389 267.602 627.139 277.213 674.299 296.251L672.634 299.578Z" fill="#8992C7"/>
<path d="M525.975 1058.87C472.527 1058.87 420.743 1048.34 371.918 1027.82C324.758 1007.86 282.406 979.393 246.157 942.98C209.724 906.568 181.243 864.242 161.269 817.294C146.289 781.991 136.672 744.84 132.603 706.764L136.117 706.395C140.186 744.1 149.803 780.882 164.598 815.815C184.387 862.578 212.683 904.35 248.747 940.393C284.81 976.435 326.792 1004.71 373.398 1024.49C421.668 1045.01 473.081 1055.36 525.975 1055.36C578.868 1055.36 630.282 1045.01 678.552 1024.49C704.444 1013.59 729.041 999.909 751.789 983.829L753.824 986.786C730.891 1003.05 706.108 1016.73 680.032 1027.82C631.207 1048.34 579.423 1058.87 525.975 1058.87Z" fill="#8992C7"/>
<path d="M350.095 332.108L348.431 328.966C358.233 323.791 368.404 318.985 378.576 314.549C425.182 294.772 474.746 284.791 525.975 284.791C552.792 284.791 579.608 287.564 605.315 293.108L604.575 296.62C579.053 291.26 552.607 288.488 525.975 288.488C475.301 288.488 426.291 298.469 380.056 317.876C369.884 322.127 359.712 326.933 350.095 332.108Z" fill="#ABB2D9"/>
<path d="M525.976 1041.68C474.747 1041.68 425.182 1031.7 378.577 1011.92C333.451 992.885 292.949 965.53 258.18 930.781C223.41 896.033 196.039 855.554 176.99 810.455C167.188 787.351 159.79 763.323 154.797 738.925L158.311 738.186C163.304 762.399 170.702 786.242 180.319 808.977C199.183 853.521 226.185 893.63 260.769 928.194C295.168 962.573 335.3 989.743 380.056 1008.6C426.292 1028.19 475.302 1037.98 525.976 1037.98C574.431 1037.98 621.591 1028.93 665.977 1011L667.271 1014.33C622.515 1032.44 574.8 1041.68 525.976 1041.68Z" fill="#ABB2D9"/>
<path d="M390.968 331.369L389.858 328.781C432.949 311.222 478.815 302.35 525.79 302.35C572.951 302.35 618.631 311.222 661.723 328.781L660.613 331.369C617.892 313.995 572.396 305.123 525.605 305.123C479.185 305.123 433.689 313.995 390.968 331.369Z" fill="white"/>
</g>
<defs>
<linearGradient id="paint0_linear" x1="27.9997" y1="588" x2="27.9997" y2="169.5" gradientUnits="userSpaceOnUse">
<stop stop-color="#01113B"/>
<stop offset="1" stop-color="#01113B" stop-opacity="0"/>
</linearGradient>
</defs>
</svg>
