<svg width="178" height="48" viewBox="0 0 178 48" fill="none" xmlns="http://www.w3.org/2000/svg">
<path d="M79.8856 16.98L76.6856 27.14L73.4456 16.98H71.5056L68.2056 27.14L65.0056 16.98H62.5056L67.2056 31H69.1456L72.4456 20.86L75.7456 31H77.6656L82.3256 16.98H79.8856ZM89.4766 21.22V22.54C88.9566 21.66 87.6566 21.02 86.3566 21.02C83.7166 21.02 81.6566 23.26 81.6566 26.1C81.6566 28.96 83.7166 31.2 86.3566 31.2C87.6566 31.2 88.9566 30.56 89.4766 29.68V31H91.6966V21.22H89.4766ZM86.8166 29.08C85.1366 29.08 83.8566 27.8 83.8566 26.1C83.8566 24.4 85.1366 23.14 86.8166 23.14C87.9366 23.14 88.9966 23.76 89.4766 24.62V27.62C88.9966 28.46 87.9166 29.08 86.8166 29.08ZM99.7311 28.94C99.5311 29 99.2111 29.06 98.9711 29.06C97.9911 29.06 97.1911 28.38 97.1911 27.24V23.34H99.7511V21.22H97.1911V18.6H94.9711V21.22H93.0911V23.34H94.9711V27.34C94.9711 29.76 96.4911 31.14 98.6511 31.14C99.0711 31.14 99.5311 31.06 99.8511 30.9L99.7311 28.94ZM110.222 28.52L108.242 27.62C107.802 28.52 106.862 29.06 105.722 29.06C104.042 29.06 102.802 27.78 102.802 26.12C102.802 24.44 104.022 23.16 105.702 23.16C106.762 23.16 107.642 23.68 108.042 24.46L109.922 23.4C109.202 21.96 107.602 21.02 105.702 21.02C102.802 21.02 100.602 23.22 100.602 26.12C100.602 29.02 102.822 31.2 105.722 31.2C107.762 31.2 109.482 30.14 110.222 28.52ZM116.829 21.02C115.589 21.02 114.429 21.6 113.849 22.54V17H111.629V31H113.849V24.6C114.329 23.76 115.309 23.24 116.289 23.24C117.689 23.24 118.589 24.2 118.589 25.78V31H120.829V25.42C120.829 22.72 119.289 21.02 116.829 21.02ZM126.646 17L131.926 31H133.866L139.146 17H136.666L132.906 27.26L129.146 17H126.646ZM141.323 16.68C140.543 16.68 139.903 17.34 139.903 18.1C139.903 18.9 140.543 19.54 141.323 19.54C142.103 19.54 142.763 18.9 142.763 18.1C142.763 17.34 142.103 16.68 141.323 16.68ZM140.203 21.22V31H142.423V21.22H140.203ZM152.094 17V22.54C151.574 21.66 150.274 21.02 148.974 21.02C146.334 21.02 144.274 23.26 144.274 26.1C144.274 28.96 146.334 31.2 148.974 31.2C150.274 31.2 151.574 30.56 152.094 29.68V31H154.314V17H152.094ZM149.434 29.08C147.754 29.08 146.474 27.8 146.474 26.1C146.474 24.4 147.754 23.14 149.434 23.14C150.554 23.14 151.614 23.76 152.094 24.62V27.62C151.614 28.46 150.534 29.08 149.434 29.08ZM165.733 25.68C165.733 23.06 163.673 21.02 161.033 21.02C158.213 21.02 155.993 23.22 155.993 26.06C155.993 28.98 158.252 31.2 161.073 31.2C163.093 31.2 164.733 30.4 165.453 29.08L163.673 27.94C163.213 28.7 162.213 29.18 161.113 29.18C159.533 29.18 158.453 28.22 158.213 26.64H165.653C165.713 26.34 165.733 25.94 165.733 25.68ZM158.293 24.94C158.633 23.66 159.573 22.86 160.913 22.86C162.253 22.86 163.273 23.72 163.393 24.94H158.293ZM171.97 21.02C169.11 21.02 166.91 23.22 166.91 26.12C166.91 29.02 169.11 31.2 171.97 31.2C174.83 31.2 177.05 29.02 177.05 26.12C177.05 23.22 174.83 21.02 171.97 21.02ZM171.97 23.16C173.59 23.16 174.85 24.44 174.85 26.12C174.85 27.78 173.59 29.06 171.97 29.06C170.35 29.06 169.11 27.78 169.11 26.12C169.11 24.44 170.35 23.16 171.97 23.16Z" fill="white"/>
<circle cx="24" cy="24" r="23" stroke="white" stroke-opacity="0.5" stroke-width="2"/>
<path d="M19 29.1957L19 17.6935C19 16.9563 19.8109 16.5068 20.4361 16.8976L29.6432 22.652C30.2699 23.0437 30.2699 23.9563 29.6432 24.348L20.53 30.0438C19.864 30.46 19 29.9812 19 29.1957Z" fill="white"/>
</svg>
