<svg width="88" height="50" viewBox="0 0 88 50" fill="none" xmlns="http://www.w3.org/2000/svg">
<rect width="88" height="44" rx="10" fill="#001C63"/>
<path d="M16.7031 22.1172V20.9688H20.9141V25.1953C20.3932 25.8203 19.7474 26.3047 18.9766 26.6484C18.2109 26.987 17.3516 27.1562 16.3984 27.1562C15.612 27.1562 14.8698 27.0078 14.1719 26.7109C13.4792 26.4141 12.8828 26.0104 12.3828 25.5C11.888 24.9844 11.4974 24.3672 11.2109 23.6484C10.9245 22.9297 10.7812 22.1641 10.7812 21.3516C10.7812 20.2682 11.0234 19.2917 11.5078 18.4219C11.9974 17.5469 12.6693 16.8646 13.5234 16.375C14.3828 15.8854 15.3411 15.6406 16.3984 15.6406C17.4453 15.6406 18.3958 15.8828 19.25 16.3672C20.1042 16.8516 20.6953 17.4844 21.0234 18.2656L19.9531 18.7891C19.6615 18.1849 19.1927 17.7031 18.5469 17.3438C17.9062 16.9844 17.1901 16.8047 16.3984 16.8047C15.5599 16.8047 14.8073 16.9974 14.1406 17.3828C13.4792 17.7682 12.9609 18.3073 12.5859 19C12.2161 19.6927 12.0312 20.4766 12.0312 21.3516C12.0312 22.0078 12.1406 22.625 12.3594 23.2031C12.5781 23.776 12.8776 24.2682 13.2578 24.6797C13.6432 25.0859 14.1068 25.4062 14.6484 25.6406C15.1901 25.875 15.7734 25.9922 16.3984 25.9922C17.7214 25.9922 18.8203 25.5964 19.6953 24.8047V22.1172H16.7031ZM30.3828 22.7578C30.3828 22.8724 30.3724 23.0339 30.3516 23.2422H23.8516C23.8984 24.1016 24.1849 24.7943 24.7109 25.3203C25.2422 25.8411 25.9115 26.1016 26.7188 26.1016C27.2812 26.1016 27.7865 25.987 28.2344 25.7578C28.6875 25.5286 29.026 25.2161 29.25 24.8203L30.1719 25.4141C29.875 25.9505 29.4167 26.375 28.7969 26.6875C28.1771 27 27.474 27.1562 26.6875 27.1562C26.1458 27.1562 25.6302 27.0521 25.1406 26.8438C24.6562 26.6354 24.2344 26.3516 23.875 25.9922C23.5208 25.6328 23.2396 25.2005 23.0312 24.6953C22.8229 24.1849 22.7188 23.6406 22.7188 23.0625C22.7188 21.9427 23.1016 20.9974 23.8672 20.2266C24.6328 19.4505 25.5677 19.0625 26.6719 19.0625C27.7188 19.0625 28.599 19.4193 29.3125 20.1328C30.026 20.8411 30.3828 21.7161 30.3828 22.7578ZM23.9219 22.3281H29.1797C29.1328 21.6615 28.8672 21.1146 28.3828 20.6875C27.9036 20.2552 27.3177 20.0391 26.625 20.0391C25.9427 20.0391 25.3542 20.25 24.8594 20.6719C24.3698 21.0885 24.0573 21.6406 23.9219 22.3281ZM35.4453 19.0625C35.7266 19.0625 36 19.1016 36.2656 19.1797L36.2031 20.2812C35.9479 20.1823 35.6693 20.1328 35.3672 20.1328C35.013 20.1328 34.6432 20.2708 34.2578 20.5469C33.8724 20.8177 33.5599 21.1823 33.3203 21.6406V27H32.1484V19.2266H33.3203V20.4531C33.5286 20.0365 33.8333 19.7005 34.2344 19.4453C34.6354 19.1901 35.0391 19.0625 35.4453 19.0625ZM46.8359 19.0625C47.7943 19.0625 48.5599 19.3594 49.1328 19.9531C49.7109 20.5417 50 21.3385 50 22.3438V27H48.8359V22.5234C48.8359 21.7891 48.6406 21.2083 48.25 20.7812C47.8594 20.349 47.3281 20.1328 46.6562 20.1328C46.2083 20.1328 45.7708 20.2656 45.3438 20.5312C44.9219 20.7969 44.5964 21.125 44.3672 21.5156C44.4141 21.75 44.4453 21.9844 44.4609 22.2188V27H43.2969V22.5234C43.2969 21.7891 43.099 21.2083 42.7031 20.7812C42.3125 20.349 41.7891 20.1328 41.1328 20.1328C40.6589 20.1328 40.2266 20.2578 39.8359 20.5078C39.4453 20.7526 39.1432 21.0755 38.9297 21.4766V27H37.7578V19.2266H38.9297V20.3906C39.1745 20.0365 39.5078 19.7266 39.9297 19.4609C40.3516 19.1953 40.8646 19.0625 41.4688 19.0625C42.7031 19.0625 43.5677 19.5599 44.0625 20.5547C44.375 20.138 44.7708 19.7865 45.25 19.5C45.7292 19.2083 46.2578 19.0625 46.8359 19.0625ZM58.3906 19.2266H59.5547V27H58.3906V25.7812C58.1667 26.1719 57.7969 26.5 57.2812 26.7656C56.7656 27.026 56.2292 27.1562 55.6719 27.1562C54.5677 27.1562 53.6432 26.7682 52.8984 25.9922C52.1536 25.2109 51.7812 24.2448 51.7812 23.0938C51.7812 21.9479 52.1536 20.9896 52.8984 20.2188C53.6432 19.4479 54.5677 19.0625 55.6719 19.0625C56.2344 19.0625 56.7734 19.1953 57.2891 19.4609C57.8099 19.7214 58.1771 20.0469 58.3906 20.4375V19.2266ZM55.8594 26.0547C56.3698 26.0547 56.862 25.9219 57.3359 25.6562C57.8099 25.3906 58.1615 25.0547 58.3906 24.6484V21.5938C58.1667 21.1667 57.8177 20.8203 57.3438 20.5547C56.875 20.2839 56.3802 20.1484 55.8594 20.1484C55.026 20.1484 54.3281 20.4297 53.7656 20.9922C53.2083 21.5495 52.9297 22.25 52.9297 23.0938C52.9297 23.9375 53.2083 24.6432 53.7656 25.2109C54.3281 25.7734 55.026 26.0547 55.8594 26.0547ZM65.6797 19.0625C66.6484 19.0625 67.4245 19.3776 68.0078 20.0078C68.5911 20.638 68.8828 21.4766 68.8828 22.5234V27H67.7109V22.6797C67.7109 21.9297 67.5026 21.3307 67.0859 20.8828C66.6693 20.4297 66.1198 20.2031 65.4375 20.2031C64.9219 20.2031 64.4375 20.3281 63.9844 20.5781C63.5365 20.8229 63.1953 21.1562 62.9609 21.5781V27H61.7891V19.2266H62.9609V20.4375C63.2161 20.0156 63.5885 19.6823 64.0781 19.4375C64.5729 19.1875 65.1068 19.0625 65.6797 19.0625ZM76.1562 19.2266H77.4062L72.9062 29.9453H71.6562L73 26.8594L69.7891 19.2266H71.0547L73.5938 25.4922L76.1562 19.2266Z" fill="white"/>
<path d="M44 50L37 44H51L44 50Z" fill="#001C63"/>
</svg>
