<svg width="56" height="50" viewBox="0 0 56 50" fill="none" xmlns="http://www.w3.org/2000/svg">
<rect width="56" height="44" rx="10" fill="#001C63"/>
<path d="M11.2656 15.7969H12.4609V27H11.2656V15.7969ZM18.7422 19.0625C19.7109 19.0625 20.487 19.3776 21.0703 20.0078C21.6536 20.638 21.9453 21.4766 21.9453 22.5234V27H20.7734V22.6797C20.7734 21.9297 20.5651 21.3307 20.1484 20.8828C19.7318 20.4297 19.1823 20.2031 18.5 20.2031C17.9844 20.2031 17.5 20.3281 17.0469 20.5781C16.599 20.8229 16.2578 21.1562 16.0234 21.5781V27H14.8516V19.2266H16.0234V20.4375C16.2786 20.0156 16.651 19.6823 17.1406 19.4375C17.6354 19.1875 18.1693 19.0625 18.7422 19.0625ZM30.3281 15.7969H31.4922V27H30.3281V25.7812C30.1042 26.1719 29.7344 26.5 29.2188 26.7656C28.7031 27.026 28.1667 27.1562 27.6094 27.1562C26.5052 27.1562 25.5807 26.7682 24.8359 25.9922C24.0911 25.2109 23.7188 24.2448 23.7188 23.0938C23.7188 21.9479 24.0911 20.9896 24.8359 20.2188C25.5807 19.4479 26.5052 19.0625 27.6094 19.0625C28.1719 19.0625 28.7109 19.1953 29.2266 19.4609C29.7474 19.7214 30.1146 20.0469 30.3281 20.4375V15.7969ZM27.7969 26.0547C28.3073 26.0547 28.7995 25.9219 29.2734 25.6562C29.7474 25.3906 30.099 25.0547 30.3281 24.6484V21.5938C30.1042 21.1667 29.7552 20.8203 29.2812 20.5547C28.8125 20.2839 28.3177 20.1484 27.7969 20.1484C26.9635 20.1484 26.2656 20.4297 25.7031 20.9922C25.1458 21.5495 24.8672 22.25 24.8672 23.0938C24.8672 23.9375 25.1458 24.6432 25.7031 25.2109C26.2656 25.7734 26.9635 26.0547 27.7969 26.0547ZM34.3203 15.8281C34.5443 15.8281 34.7422 15.9115 34.9141 16.0781C35.0859 16.2448 35.1719 16.4401 35.1719 16.6641C35.1719 16.8932 35.0859 17.0938 34.9141 17.2656C34.7422 17.4323 34.5443 17.5156 34.3203 17.5156C34.0911 17.5156 33.8958 17.4323 33.7344 17.2656C33.5729 17.099 33.4922 16.8984 33.4922 16.6641C33.4922 16.4401 33.5729 16.2448 33.7344 16.0781C33.8958 15.9115 34.0911 15.8281 34.3203 15.8281ZM33.7266 19.2266H34.8984V27H33.7266V19.2266ZM43.2812 19.2266H44.4453V27H43.2812V25.7812C43.0573 26.1719 42.6875 26.5 42.1719 26.7656C41.6562 27.026 41.1198 27.1562 40.5625 27.1562C39.4583 27.1562 38.5339 26.7682 37.7891 25.9922C37.0443 25.2109 36.6719 24.2448 36.6719 23.0938C36.6719 21.9479 37.0443 20.9896 37.7891 20.2188C38.5339 19.4479 39.4583 19.0625 40.5625 19.0625C41.125 19.0625 41.6641 19.1953 42.1797 19.4609C42.7005 19.7214 43.0677 20.0469 43.2812 20.4375V19.2266ZM40.75 26.0547C41.2604 26.0547 41.7526 25.9219 42.2266 25.6562C42.7005 25.3906 43.0521 25.0547 43.2812 24.6484V21.5938C43.0573 21.1667 42.7083 20.8203 42.2344 20.5547C41.7656 20.2839 41.2708 20.1484 40.75 20.1484C39.9167 20.1484 39.2188 20.4297 38.6562 20.9922C38.099 21.5495 37.8203 22.25 37.8203 23.0938C37.8203 23.9375 38.099 24.6432 38.6562 25.2109C39.2188 25.7734 39.9167 26.0547 40.75 26.0547Z" fill="white"/>
<path d="M28 50L21 44H35L28 50Z" fill="#001C63"/>
</svg>
