<svg width="51" height="50" viewBox="0 0 51 50" fill="none" xmlns="http://www.w3.org/2000/svg">
<rect width="51" height="44" rx="10" fill="#001C63"/>
<path d="M15.5234 27.1562C14.7214 27.1562 13.9948 26.9688 13.3438 26.5938C12.6927 26.2135 12.1823 25.6927 11.8125 25.0312C11.4479 24.3646 11.2656 23.6224 11.2656 22.8047V15.7969H12.4609V22.8047C12.4609 23.7161 12.75 24.4766 13.3281 25.0859C13.9115 25.6901 14.6432 25.9922 15.5234 25.9922C16.3984 25.9922 17.125 25.6901 17.7031 25.0859C18.2865 24.4766 18.5781 23.7161 18.5781 22.8047V15.7969H19.7891V22.8047C19.7891 23.6276 19.6042 24.3698 19.2344 25.0312C18.8698 25.6927 18.362 26.2135 17.7109 26.5938C17.0599 26.9688 16.3307 27.1562 15.5234 27.1562ZM25.3359 15.6406C26.0339 15.6406 26.7109 15.776 27.3672 16.0469C28.0234 16.3177 28.526 16.6615 28.875 17.0781L28.1406 18.0078C27.8177 17.638 27.3958 17.3464 26.875 17.1328C26.3594 16.9141 25.8203 16.8047 25.2578 16.8047C24.5911 16.8047 24.0391 16.9688 23.6016 17.2969C23.1693 17.625 22.9531 18.0443 22.9531 18.5547C22.9531 18.9609 23.0677 19.3047 23.2969 19.5859C23.5312 19.8672 23.8333 20.0859 24.2031 20.2422C24.5729 20.3984 24.9818 20.5391 25.4297 20.6641C25.8828 20.7891 26.3333 20.9271 26.7812 21.0781C27.2292 21.2292 27.638 21.4115 28.0078 21.625C28.3776 21.8333 28.6771 22.1328 28.9062 22.5234C29.1406 22.9089 29.2578 23.3724 29.2578 23.9141C29.2578 24.8307 28.9036 25.6016 28.1953 26.2266C27.4922 26.8464 26.5729 27.1562 25.4375 27.1562C24.6354 27.1562 23.8724 27.0052 23.1484 26.7031C22.4245 26.401 21.7995 26.0052 21.2734 25.5156L22.0469 24.6016C23.0938 25.5286 24.224 25.9922 25.4375 25.9922C26.1927 25.9922 26.8099 25.8021 27.2891 25.4219C27.7734 25.0365 28.0156 24.5391 28.0156 23.9297C28.0156 23.6224 27.9427 23.3542 27.7969 23.125C27.6562 22.8958 27.4635 22.7109 27.2188 22.5703C26.9792 22.4245 26.7031 22.2969 26.3906 22.1875C26.0781 22.0781 25.7474 21.9766 25.3984 21.8828C25.0547 21.7891 24.7083 21.6901 24.3594 21.5859C24.0104 21.4818 23.6797 21.3516 23.3672 21.1953C23.0547 21.0339 22.776 20.8464 22.5312 20.6328C22.2917 20.4193 22.099 20.1432 21.9531 19.8047C21.8125 19.4609 21.7422 19.0703 21.7422 18.6328C21.7422 17.7734 22.0807 17.0599 22.7578 16.4922C23.4401 15.9245 24.2995 15.6406 25.3359 15.6406ZM38.7422 27L37.6562 24.2656H32.3594L31.2656 27H29.9922L34.4688 15.7969H35.5547L40.0547 27H38.7422ZM32.8203 23.1094H37.2031L35.0156 17.5781L32.8203 23.1094Z" fill="white"/>
<path d="M25.5 50L18.5 44H32.5L25.5 50Z" fill="#001C63"/>
</svg>
