<svg width="50" height="50" viewBox="0 0 50 50" fill="none" xmlns="http://www.w3.org/2000/svg">
<path d="M1.00403 25.5202C1.30453 38.6775 12.0625 49.2395 25.4148 49.0191C38.6769 48.7986 49.2847 37.916 48.9942 24.508C48.7237 11.2304 37.7855 0.718526 24.4332 1.02917C11.3112 1.3298 0.763626 12.1924 1.00403 25.5202ZM15.9189 18.6358C21.969 18.6358 28.0392 18.6358 34.0893 18.6358C34.7504 20.7903 34.7504 29.2179 34.0893 31.3924C28.0392 31.3924 21.969 31.3924 15.9189 31.3924C15.2478 29.268 15.2478 20.8003 15.9189 18.6358ZM16.56 15.3991C16.58 15.2788 16.5901 15.1987 16.6101 15.1185C17.181 12.9039 17.9624 10.7594 19.1243 8.78532C20.0058 7.27217 21.0575 5.90933 22.5801 4.96737C23.6118 4.33606 24.7136 4.03543 25.9156 4.31601C27.1076 4.5966 28.0692 5.27802 28.9006 6.13981C30.8238 8.1039 31.9357 10.5289 32.8071 13.0843C33.0576 13.8358 33.2579 14.5974 33.4883 15.3891C27.8088 15.3991 22.2094 15.3991 16.56 15.3991ZM33.4883 34.6391C32.6268 37.8859 31.515 40.9623 29.2813 43.4775C28.7203 44.1189 28.0191 44.67 27.2979 45.131C25.7654 46.103 24.1427 46.083 22.6402 45.0809C21.8188 44.5397 21.0575 43.8483 20.4265 43.0967C18.6134 40.9222 17.5917 38.3368 16.8204 35.6512C16.7303 35.3206 16.6502 34.9899 16.56 34.6391C22.2094 34.6391 27.8088 34.6391 33.4883 34.6391ZM37.3547 18.6458C37.505 18.6258 37.5751 18.6158 37.6352 18.6158C39.899 18.6158 42.1728 18.6258 44.4366 18.6058C44.7871 18.6058 44.8372 18.7861 44.9174 19.0367C46.1194 23.045 46.0993 27.0433 44.9073 31.0517C44.8172 31.3423 44.697 31.4325 44.3865 31.4325C42.6235 31.4224 40.8506 31.4224 39.0876 31.4224C38.5267 31.4224 37.9658 31.4224 37.3447 31.4224C37.9557 27.1435 37.9557 22.9147 37.3547 18.6458ZM5.20104 18.6559C7.70522 18.6559 10.1593 18.6559 12.6535 18.6559C12.0324 22.9248 12.0625 27.1536 12.6435 31.4024C10.1193 31.4024 7.67517 31.4024 5.21106 31.4024C3.8588 27.1335 3.86882 22.8947 5.20104 18.6559ZM17.2011 5.86925C17.141 5.96946 17.0909 6.06966 17.0208 6.15985C15.2779 8.85546 14.0358 11.7615 13.3547 14.898C13.2545 15.359 13.0642 15.4291 12.6635 15.4191C11.0107 15.3991 9.368 15.4091 7.71524 15.4091C7.35463 15.4091 7.00405 15.4091 6.5533 15.4091C9.0074 10.9198 12.5032 7.74315 17.2011 5.86925ZM17.2311 44.2992C12.4932 42.2951 8.99738 39.1084 6.60338 34.6892C6.68352 34.6492 6.71357 34.6291 6.7336 34.6291C8.79704 34.6291 10.8605 34.6291 12.9239 34.6091C13.2244 34.6091 13.2645 34.7694 13.3146 34.9999C13.7954 37.1844 14.5166 39.2888 15.5483 41.2729C16.0592 42.265 16.6301 43.227 17.2311 44.2992ZM32.7971 5.83919C36.0425 6.46048 42.303 12.1323 43.3648 15.4191C41.2412 15.4191 39.1277 15.4291 37.0242 15.3991C36.914 15.3991 36.7437 15.1686 36.7036 15.0183C35.9724 11.8417 34.7504 8.87551 32.9674 6.13981C32.9173 6.05964 32.8672 5.95944 32.7971 5.83919ZM43.3848 34.6191C41.8222 38.3469 35.4716 44.0587 32.8172 44.169C32.8172 44.1489 32.8172 44.1289 32.8272 44.1189C34.6803 41.2729 36.0025 38.2166 36.7237 34.8897C36.7437 34.7794 36.934 34.6291 37.0442 34.6291C39.1477 34.6191 41.2412 34.6191 43.3848 34.6191Z" fill="#2240CD" stroke="#2240CD" stroke-width="0.546512"/>
</svg>
